<svg xmlns="http://www.w3.org/2000/svg" viewBox="0 0 796 228">
  <g id="Layer_2" data-name="Layer 2">
    <g id="Layer_1-2" data-name="Layer 1">
      <rect width="796" height="228" rx="12" style="fill:#01d437"/>
      <path style="fill:#fff;" class="cls-2" d="M261.46 129.31c-6.42 19.49-19.3 31-41.23 31-22.63 0-34-15.48-34-38.91 0-26.31 14.1-60.4 48.3-60.4 20.19 0 32.49 11.64 33.18 31.54h-16.92c-.58-9.42-4.91-17.67-18.06-17.67-19.39 0-29.19 24.87-29.19 46.3 0 14 4.83 25.28 18.59 25.28 11.18 0 17.77-6.49 22.27-17.11ZM327.37 141.31c-1.39 6.95-2.93 15.29-3.08 17.66h-15.21c.17-2.25.73-6.22 1.23-9.09-3.4 5-8.3 10.49-21.38 10.49-13.48 0-18.9-9.83-18.9-18.3 0-20.16 17.1-25.2 31.62-26.81 6.14-.6 11.65-.6 15.63-.74l.69-3.87c1.08-5.72.94-13.15-9.83-13.15-9.48 0-11.58 5.36-13.27 9.52H279c2.48-11.25 10-21.25 30.47-21.25 16.21 0 27.69 7.31 24 25.6ZM315 125.77a115.4 115.4 0 0 0-12.48.8c-10.35 1.47-16.28 4.85-16.28 12.74 0 4.58 2.86 8.27 9.19 8.27 13.16 0 17.18-11.13 19.3-20.69ZM356.18 137c.56 6.63 4.59 10.88 13.15 10.88 7.72 0 11.17-3.82 11.17-9.28 0-5.27-3.88-7.87-12.76-11-15.48-5.25-20.23-11-20.23-19.63 0-12.38 9.1-22.19 26.59-22.19 18.49 0 26.34 10.24 25.93 21.32h-15.81c-.29-4.26-2.29-8.94-11.08-8.94-5.3 0-10 2.28-10 7.78 0 4.26 3.69 6 12.48 9.13 15.33 5.31 21 11.74 21 21.71 0 15.76-13 23.6-29.15 23.6-17.83 0-27.6-8.94-27.07-23.4ZM441.13 56.81l-8.05 40.27c4.24-5.89 10.54-11.31 21.22-11.31 11.33 0 21.21 6.5 17.12 27.2l-9.18 46h-15.48l8.63-43.62c2-10.31.07-15.61-8.57-15.61-9.73 0-15.75 7.89-18 18.93L420.69 159h-15.57l20.44-102.19ZM535.33 133.81 522.72 159h-17.09l49.72-96.6h20.29l12.51 96.6h-16.29l-3.3-25.16Zm32.45-14.16c-2.48-20.93-4.07-35.29-4.58-43.72h-.14c-4.15 9.31-11.88 25.21-21.2 43.72ZM616.64 151.38l-7.1 35.33H594l15.75-78.63c2-9.74 3.21-16.33 3.88-20.91h15.44c0 1.54-1 6.93-1.64 10.54 4.09-6.24 10.83-11.94 21.56-11.94 13.73 0 21.73 10.93 21.73 27.8 0 22.78-12.91 46.8-36.72 46.8-9.31 0-15.06-4.37-17.36-8.99Zm37.84-36.07c0-10.85-4.76-15.77-12.27-15.77-10.7 0-17.93 10.75-20.51 23.85s-.16 23.35 11.95 23.35c14.4 0 20.83-18.06 20.83-31.43ZM694.25 151.38l-7.1 35.33h-15.52l15.74-78.63c2-9.74 3.22-16.33 3.88-20.91h15.44c0 1.54-1 6.93-1.64 10.54 4.09-6.24 10.83-11.94 21.56-11.94 13.73 0 21.73 10.93 21.73 27.8 0 22.78-12.91 46.8-36.72 46.8-9.32 0-15.07-4.37-17.37-8.99Zm37.84-36.07c0-10.85-4.76-15.77-12.27-15.77-10.7 0-17.93 10.75-20.51 23.85s-.16 23.35 12 23.35c14.36 0 20.78-18.06 20.78-31.43ZM65.52 166c2.53.78 2.62.85 2 3.4-.22 1-.07 2.21-.94 3a4.4 4.4 0 0 1-.1 2.16c-.35 1.53-.7 3.06-1 4.6a4.38 4.38 0 0 0 4.22 5.5c5.69.13 11.38.1 17.07 0 2.22 0 3.61-1.27 4.22-3.54.79-3 1.31-6 2-9 .56-2.56.93-2.77 3.44-3 9.35-.94 18.27-3.27 26.18-8.68a37.32 37.32 0 0 0 9.63-9.66c.47-.68.86-1.49 1.73-1.71a39.39 39.39 0 0 0 4.31-16.41c.36-10.13-3.43-18.22-11.3-24.42-6.31-5-13.59-8.07-21-10.82-5.67-2.1-11.42-4-16.93-6.5a24.57 24.57 0 0 1-5.81-3.56 9.73 9.73 0 0 1 .88-15.91C87.66 69 91.73 68.22 95.88 68a47.39 47.39 0 0 1 33 11.06c2.79 2.28 5.1 2.19 7.61-.33 2.75-2.78 5.46-5.6 8.24-8.37a8.08 8.08 0 0 0 1.44-2.33 2 2 0 0 1-.46-1.31 5.15 5.15 0 0 0-2-3.48 72.18 72.18 0 0 0-21.09-12.22c-2.22-.86-2.34-1.1-1.9-3.51.62-3.39 1.43-6.73 2.07-10.12.73-3.84-1-6-4.81-6h-15.64c-3 0-4.37 1.11-5 4.09s-1.42 6.12-1.85 9.23A2.36 2.36 0 0 1 93 47.12a66.46 66.46 0 0 0-15.83 3.11c-8.45 3-15.59 7.66-20.32 15.56-.33.54-.66 1.15-1.34 1.17a3.18 3.18 0 0 1-.51 2.23 35.53 35.53 0 0 0-2.57 13.6c.14 10.78 4.77 19.22 13.64 25.28a60.14 60.14 0 0 0 7.57 4.5c.61.3 1.36.5 1.63 1.24a5 5 0 0 1 1.7.52c6.25 2.65 12.69 4.8 19 7.26a43.28 43.28 0 0 1 9.65 4.81 10.13 10.13 0 0 1 4.24 6.7v3a10.19 10.19 0 0 1-1.93 5.26c-.4.55-.78 1.22-1.59 1.12-2.76 3-6.36 4.44-10.24 5.13a44.24 44.24 0 0 1-30.41-5.12 2.33 2.33 0 0 1-1.86-.5 38.11 38.11 0 0 1-6.57-4.99 11.71 11.71 0 0 0-2.26-1.72 4.43 4.43 0 0 0-5.63.67 46.33 46.33 0 0 0-3.37 3.76c-1.61 1.8-3.59 3.2-5.26 4.95-2.34 2.44-2.37 4.74 0 7.09A60.69 60.69 0 0 0 65.52 166Z"/>
    </g>
  </g>
</svg>