<svg xmlns="http://www.w3.org/2000/svg" viewBox="0 0 1072 175.2" preserveAspectRatio="none">
  <path d="M243 102.8c0 .3-.2.4-.1.8 0 0 .6.6.6 0-.8 0 .3-.7-.4-.8zM248 91.5c-1.5-.5-2.1.9-2 2.6a3.9 3.9 0 00.3 1.9c.8 1.4 3.7 1.8 4-.1.2-.9-1.5-4.2-2.3-4.4zm1 3.8h.3v.4h-.3zM246.6 102.8c-1.6.5-1.8 4 .4 4.1a.2.2 0 01.3-.1c.5-1.4.3-3.5-.7-4zM261.7 55c-2.5-1.5-4 .5-5 1.9s-2 2.6-1.7 4.9c.3 2.6 1.7 2.7 2.7 4.4.4.7.6 2.1 1 2.6a3.2 3.2 0 004.5 0c.8-.8.6-2.2 1-4.1s1-2.9.8-4.2c-.2-1.5-2.2-4.9-3.3-5.5zM267.3 100.3a1.3 1.3 0 00-.7 1.7c.8.2 1.1-.2 1.3-.8a1.8 1.8 0 00-.6-1zM269.9 77.3a1.6 1.6 0 00-.6 1.5c.4.5 1.3.3 1.7 0 0-.9-.4-1.4-1.1-1.5zM274.5 113.4c-.9 1.4-1 4.5 1.2 3.6.7-1.5 0-3.3-1.2-3.6zM276.8 104.6h.4v-.4h-.4zM289 68.8c.7-1.4-.2-2.3-.4-3.1-.5-1.5-.2-2.3-1.4-2.4-.7 0-1 1.4-2 1.4-.5 3.3 1.5 4.5 3.8 4.1zM285 95.8s.1.1 0 .4c.5 0 .9.1 1-.1.4-1.2-1-1.5-1-.3zM315.3 56.3c0-.6.2-.7.3-1.2 0-.3-.4-.2-.3-.7l-.1-.1V54c-.7.2-1 2.4.1 2.3zM315.5 56.3c.4.1.6 0 .7-.3-.4-.1-.6 0-.7.3zM316.6 115.2c-.6.8-1.7 0-2.5.3-.2 2 1.3 2.1 1.6 3.6 2.4.6 3-3.2 1-4zM320.6 65.7c0-.8-1-.6-.4-1.5-.5 0-.8-.6-1 .1.3.3.4 1 .6 1.3zM317.1 139.4c-.2.5.2.5.1 1 .8.2.5-1 0-1zM317.9 140.7c-.3 1.1.6 1.6.8.5-.6 0-.2-.8-.8-.5zM322 135a3 3 0 01-1 .7c-.3 2.4 1.6 2 2.3 1.7.3-1.6-.8-1.7-1.3-2.4zM327.8 56h.3v-.3h-.3zM324.4 141c0 .3-.3.3-.2.6.4.4.5-.6.2-.6zM326.7 132.9c-.1.6-.1 1 .4 1a1 1 0 00-.4-1zM333.5 51c-.2-.3-.4-.3-.5.1.2 0 .2.3.5.3zM334.6 54.2c0-.7-.4-.8-1-1 0 .8.4 1 1 1zM330.2 115c-.2.7.6.4.5 1-.7.3-1 .5-1.1 1-1.2 4.7 7.7 5 8 1.2a16.5 16.5 0 00-1.3-3.2c-1.8-3.3-4.3-3.5-6 0zM339.4 47c1-.3 1.5-3.8.5-5-.4-.6-2-1.2-2.8-.3-.5.5-.2.5-.3 1.8a5.3 5.3 0 00.1 2.5 2.6 2.6 0 002.5 1zM333.3 95.6v-.4c-.4-.4-.6.6-.3.6.1-.1.1-.3.3-.2zM334.6 136.3c-.8.2-1.7 0-2.2.3-2.3 1.6.3 6.9 2.8 5.5 1.5-.9.5-2 .1-3.5-.3-1 .4-2.3-.7-2.3zM335 92.7v.4h.3v-.4zM279.1 20.8c.6.2.5-.7 1-.5.2.5-.5.7 0 .8.2-.4.7-.4.6-1.3-.8-.2-.8-.7-1.2-1.4 1-.4 1 .3 1.7.6.3-1-.7-.8-.7-1.7l-2.1.2a10 10 0 01-.4 3c.4.5.7 1.2 1.5 1.4.2-.7-.6-.3-.4-1zM318.9 131.6h-.2v-.2c-.6 0-.8.5-1 1.3v.4c.6-.5.8.3 1.2.3.5-.4-.6-1.3 0-1.8zM322 66.3c-.3 0-.5-1-.7-.3.2 0 .6.7.6.3z"/>
  <path d="M341 61h-.1a8 8 0 000-2.1c-.7-.5-1.3-.4-1.7.4a7.3 7.3 0 00.6 1.6h-.3c-.2-2-2-2.6-2.5-4.4-1.1 0-1.5-1-2.2-1.5-.5 1.5-2.6 2-2.7 0-2-.5-3.6-1-3.8-3.2-1.7-.4-3-1-4 .2l-.5 2c-1.4 0-1.5 1.6-2.2 2.8s-1.7 1.1-1.9 2c-.8 3.5 2.3 5 5.2 5a4.2 4.2 0 01.9 1.6c.5.2.5-.3 1 0 1.2 2.2 3.1 2 5.3 2.2 3.3.1 5.5 2.7 7.4 4.7.6-1.3 2.2-1.2 2.8-1.3.6-.7 1.1-4.6.5-6.7-.4-.9-1.6-2.4-1.8-3.2zm-18-3c-.4-.3.2-.9.6-.6 0 .4-.5.1-.5.6zm8.6-1.7c0 .8-.8.6-.7 0zm-4.9 2.1c-.3 0-.5.1-.5.6-.5-1-1.6-.9-2.3-1.3.6-1.4 1.3.1 1.8-.8.5.2.1.3 0 .8.4 0 .3-.5.8-.3 0 .4.4.4.2 1zm1.4-.8l-.8-.1c.1-1.8-.4-2 .4-2.7 0-.2-.4-.2-.7-.2 1.2-1.3 2 .5 2.3 1.7-.7 0-1.1.4-1.2 1.3zm1.3 2.8c-.2-.2-.1-.7-.2-1 .2.3.6.6.2 1zm.2-2c0-.7 0-1.1-.2-2.1.8 0 0 1.4.7 1.5 0 .5-.5.2-.5.5zm.6 1.3c.2-.6.2-.2.7-.2-.1.5-.5.4-.7.1zm1-.5a1.5 1.5 0 01.3-1c0-.5-.6-.1-.5.1-.6-.4.4-.2.2-.8l.8.7c-.3.4-.4.9-.8 1zm.8.7c-.1 0-.2 0-.2.2-.3 0-.2-1 .2-.6zm4.8-1c.3.3.3 1.4 0 1.7-.4-.2-.5-.7-1-.9 0-.9 1 0 1-.7zm.1 4.8c-.2.5-.4 1-1 1 .1-.8.3-1.3 1-1zm-4-2.9a1 1 0 01.2 1.3c-.5-.4 0-.8-.2-1.3zm.2 4.3h-.2V65s-.2 0-.2.2l-.3-.2.2-.4c.2 0 .2.2.3.2v-.2h.2c0-.4.5-.2.4-.8.5.3-.4 1.7-.4 1.4zm.8.1c0-.5.1-1 .6-1-.3.3.2 1-.6 1zm.2-4.9c0-.4.4-.2.4-.6.2.1 0 .5.3.5 0 .2-.4 0-.7 0zm.6-1c0-.2.3-.2.4-.5.4.1 0 .8-.4.5zm.5 5.9c0-.5.2-.7.6-.6 0 .4-.2.6-.5.5zm1.2 2.7c-.4-.2-1 0-.8-.9 1 .2 1.4-.8 2-1.4.4.1 0 .7-.2.6 0 .5.5-.2.6.3-.1.7-.3.5.3.4-.5 1.3-1.4-.4-1.9 1zm2.7-3v-.4c-.7 0-.4 1.3-1.2 1.1.5-.4.6-1.4 1.3-1.7-.3.7.8 1.1 0 1.1zM293.9 57.7a4.8 4.8 0 00.3-1.5c0 .1.2.2.4 0 .3 1.5.7 2.8 1.7 3 .9-1.6.4-3.8-1.8-3.3-.3-1.4 0-2.5-1-3a1.8 1.8 0 00-1-1 2 2 0 00-1.9.8 3.5 3.5 0 00.7 3.5c0 1.3.4 2.5 1.3 2.4.3 0 .4-.5.5-1a2.7 2.7 0 00.8.1zM289.1 93.4c-1.1-.3-1.6 2.3 0 2a2.6 2.6 0 00.5-1.6 1.1 1.1 0 01-.5-.4zM295 63c-.4 1.5-.8 3.3 0 4.3 3.6 1.4 2.7-5.4 0-4.3zM293 94.8c0 .3-.3.4-.2.8l.8.1c.2-.6 0-.9-.6-.9zM294.4 80c-.7 1.3.9 1.5 0 3 .5 1.6 2.5 1.7 2.9.5.6-2-1.5-2.8-3-3.4zM301 54.6H301.3c0-.3.6 0 .6-.5l-.4-.1a.6.6 0 00.7 0 .7.7 0 000 .2c.8-.3.6.4 1.3.1H303.8a5.9 5.9 0 00-.6-2.3l-.2.1-.1-.1-.2.4c-.2 0-.2-.2-.3-.2 0-.2.2-.3.3-.2v-.4c-1.7-2-3 1.6-1.7 3zm.5-1.8c0 .3-.3.4-.3.7l-.1.1c.4-.5-.3-1 0-1.2s.6.1.6.4a1.1 1.1 0 00-.2 0zm1.3.8c0 .3-.3.2-.5.2a.7.7 0 000-.9c.3.1.6.4.5.7zM308.7 50.8c.6-.6-.6-.7 0 0zM310.6 52c-.3-.3-.9-.5-.7-1.4l-.8-.1a1.2 1.2 0 01-.3.7c.4.4 1.5 1 1.8.9zM841.3 126.9c-.4 3.8.3 8.2-.1 10.9-.3 1.8-2.2 3.8-.8 5 2 1.8 2.6-3.6 1.2-3.7a114.7 114.7 0 002.6-13.8c.2-2.1.6-5.3-.8-7.2-.9 1.8-1.7 5.2-2 8.8zM855.9 105a2.5 2.5 0 00-.7-2.4 2.5 2.5 0 00.7 2.4zM877.2 71.7c-1 0-.9 1.8 0 0zM852.8 96.7a3.9 3.9 0 001 3v-.3l.3-.1c.3-1-.4-1.8-1.3-2.6zM875.3 70.5c.2-.5-.3-.4-.6-.6-.2.6.3.4.6.6zM818.4 144.9l-1.4-1.5c-4 1.3 1 6.4 1.4 1.5zM845.6 104.8c-.5.5-.3 1 .3 1.5.1-.5.3-1-.3-1.5zM843.7 106c-.3.6.2 1-.1 1.7.6.2.6-1.3 0-1.6zM811.7 145.5c-1-.1 0 1.7 0 0zM842.1 101.9c.4-.4.1-.6.3-1-.3-.5-1 .8-.3 1zM844 95.8c1-.9.4-1.7.4-2.5-.8-.5-1.4 1.8-.4 2.5zM825.5 119.8c.8.2.4-1.4.6-1.8-1-.2-.4 1.3-.6 1.8zM806.9 145c.4-1.6 1-3.3.2-4.8-1.2.8-2 3.4-.2 4.8zM826.2 116.4c-1-.1 0 1.7 0 0zM825.7 114.1c-1 0 0 1.8 0 0zM842 87c-.5.7-1 1.4-.4 2 .5 0 1-1.4.4-2zM818.6 116.3c0 1.5-1.2 3.8.2 4a16.7 16.7 0 00.9-8.4c-1.6 1.3-1 3-1 4.4zM828.6 105.7c.4.4.8.1 1-.5l-.5-.6c-.5.4-.3.8-.5 1.1zM839.6 86a2 2 0 00.3 2 1.3 1.3 0 00-.3-2zM842.7 82.6c.7-.5.2-1 .7-1.4a.9.9 0 00-1.5 0 2 2 0 00.8 1.4zM831.2 95.8c1-1 1.6-3.8.6-5.3-1.5 1.9-.3 3.5-.6 5.3zM826.7 97.8c-.9 2.8-3.8 4.4-2.2 7 2.3-1.5 2.5-4.6 2.6-6.6l-.3-.1zM830.3 93.1c.9.3.1-1.1.5-1.6-1-.3-.2 1.2-.5 1.6zM824 98a2 2 0 00.2 2.3c1.2-.1 1-2.5-.1-2.3zM799.3 126.3l.3.1v.4c2.6-2 4-6.3 3-8.4-1.3 2.6-3.1 5-3.3 8zM784 125.4c-1.2 2.4-2 5.9-3.4 8.6-1.6 3.4-3.4 6.3-3.6 9.4h.3l.1.4a222 222 0 0010.3-22.1c-1.8-.6-2.9 2-3.7 3.7zM807.5 110a4.8 4.8 0 001.3-2.8c-1 0-2 1.8-1.3 2.8zM782.2 117.1c1-1.7.8-4.4-.4-5.1-1.4 1.7-1 4.4.4 5.1zM883.9 69.3l-.1-.4c-.8.6-.3 1.1-.5 1.6.6.6 1-.6.9-1.2zM880.6 65.6l-.2.7.2-.7zM840 96.6c.4.5-.2 1 .5 1.4.7 0 1.1-.8.8-1.7h-.3l-.1-.4a1.5 1.5 0 00-.9.7zM847.3 85.4c.7-2-.8 2.5 0 0zM523.7 44.4c-.3.2-.8 0-.6.7.3-.3.8-.1.6-.7zM492.8 21.7c0-.9.6-1.6-.4-2.6-1 .7-.4 3.1.4 2.6zM491.1 75.2c.7-.5.5-1.2.8-1.7l-1.1-1.7a2 2 0 00.3 3.4zM506.9 94.9c-.6.5-.4 1 .1 1.6.8-.5.4-1-.1-1.6zM472 63c-1.3 0 0 1.5 0 0zM488 85.8c-2.7 2 .3 1.5 0 0zM469.6 64.1l.5.7.6-.6-.3-.5c-.3.3-.5 0-.8.4zM496.4 103.5l.2-.2h.3a2.2 2.2 0 00-.3-3c-.8 1-.2 2.2-.2 3.2zM483.8 85.5c1.7-.7.1-1.5 0 0zM478.6 82.5c.6 1 2.7-.5 2.3-1.6a2.2 2.2 0 00-2.3 1.6zM485.6 93.3c.3-.4 2-1.8 1-1.5-.3.4-1.9 1.8-1 1.5zM496.3 108.3c.2.4 0 .7.1 1.1.6-.2.5-1.6-.1-1.1zM484.2 94.8l-.2.2-.2-.2c-.7 0-2 1.9-1.8 2.8 1-.7 2.3-1.6 2.2-2.8zM472.7 81.6a2.5 2.5 0 00-.2-2.7c-.4 0-.9.5-1.3.5a9.3 9.3 0 011.5 2.2zM468.9 74.2c-.3.4-.8.7-.6 1.1.2-.5 1.3-.1.6-1zM486.5 100.4c-.6 1.7 1.1 0 0 0zM462.2 66.9a1.4 1.4 0 000 1.8 1.4 1.4 0 000-1.8zM468.3 77.8c-1 .2-.7.3-.6 1.5.2-.5 1.4-.9.6-1.5zM470 80.7l-.3-.5-.4.4.3.5zM469.6 85l-.2.2-.6.6.2.1.1.4c.5.2 1-.2 1.5-.8-.2-.5-.6-.3-.8-.8zM468.2 86.4c-2-2-4.1-.4-4.6 2.3.6 2 2 2.3 3.2 2.6a7.4 7.4 0 001.7-4.4l-.2-.1zM468.9 84c-.4-1.8-1.4-.2 0 0zM461.7 82.3c1.3-.3 1.3-2.4.6-3.6-.7 1.1-1.3 2.3-.6 3.5zM469.5 97.6h-.3a1.4 1.4 0 000 1.8 2 2 0 00.6-2zM458.2 76.3c-2 3.5-3.9 7-4 10.5 2.6-1 2-6 4.4-8.4-.3-.8.4-1.4-.4-2.1zM451.7 81.4c0 1.4 1.3 0 0 0zM443.3 75h-.3c-.5 2-.9 4-.2 6.1 1.3-2 .8-4.2.8-6.3zM452.3 94.4c1.9.7 3.7-1.6 3.6-3.8-.8 0-1.6-.8-2.4-1.3-2.1 1.2-2.5 3-1.2 5zM427.4 111.5l.2.1.1.4a66.4 66.4 0 006.2-11.3l-.5-.7c-3 3-4.1 7.7-6 11.5zM425.5 115.2c-1 1.4-2.7 2.8-1.8 4.4 1.3-.4 1.8-2.7 2.1-4h-.3zM399.3 74.7l.4.5.4-.4-.4-.5zM419.8 107.7c-.8 1-2.7 2-1.9 3.2 1.1-.1 2.4-2.2 1.9-3.2zM418.9 119.6c1.2-1 4.4-4 4.4-6-1.7.7-4 4-4.4 6zM386.4 72.7c-1-.6-5.3.4-6.6 2-2.9 3.5-.1 9.2 3.2 8.8s8.3-8 3.4-10.8zM440.5 151.4l.3.1v.3c.4-.6 2-1.2 1-1.9-.2 0-1.5.8-1.3 1.5zM437.7 155.2l-.6.6-.3-.4-.2.2-.2-.3a3.4 3.4 0 00-.2 2.7l.3-.2h.3c.5-.7 2-1.5 1.8-2.3l-.5.1zM433.4 163.1v-.3c-.5.5-1 1.1-.5 1.7.2-.4 1.2-.7.8-1.2zM382.6 91.7c-1-.5-.8.7-1.8 1.4.7 1 1.4-.2 2.1-1l-.2-.1zM412.4 136.8l.8-.9-.7-1a1.4 1.4 0 00-.1 1.9zM402.8 134.6l.3.1v.4c.8-1 2.2-1.8 1.5-2.8a4.4 4.4 0 00-1.8 2.3zM414 153.2c1-.4 2.7-2 1.5-3.3a2.6 2.6 0 00-1.5 3.3zM376.2 174.7l.3.5.4-.4-.3-.5zM341.9 137.4l.3.5.4-.5-.3-.4zM485.6 97.6l-.2-.2c-.6 1.1-2.3 2.2-1.7 3.5.7-.3 2.3-2.4 2-3.5zM403.2 69.7v-.3a6.5 6.5 0 00-3.1 2c1 1.6 2.2-.4 3.4-1.5zM403 66.6h-.3v-.4c-.7-.7-1.3.6-1.6 1.2a1.2 1.2 0 001.9-.8zM529 49.4l-.2-.7.2.7zM491.6 98.4a3.7 3.7 0 00-.6 2 3.5 3.5 0 00.6-2zM471.4 81.7a2.4 2.4 0 00.3 2.3v-.3l.4-.1c1.4-1.4.2-.3-.7-1.9zM472.7 85.4c-.4.4-.2.8-.6 1.1l-.1.3-.3.1.3.5a1.4 1.4 0 01-1 .6 2.6 2.6 0 00.8 2.1c1.4-.8 3.7-2.4 2-4.6-.4 0-.8.7-1.1 0zM11.8 10c1-.3.6-1.5.5-2.6-1.8-1-1.6 1.7-.5 2.6zM19.7 13c1-.6 1.9-1 1.8-2.3-1.8-1.2-4.2 1.3-1.8 2.2zM13.3 15.2c4.8 2.2.6-6.4 0 0zM84.2 0h-2.9c.5 1 2.1.6 3 0zM21 20c1-.4 2.4-.6 2.3-1.7-1.1-2-4.7.2-2.3 1.7zM46.8 19.7c-.5.2-1.7 0-1.3.7.3.4 1.7 0 1.3-.7zM24.6 40.4c-1.4-.2-2.8-2.7-4-.8.7 1.3 1 3.6 2.2 4 .2-1.4 1.8-1.7 1.8-3.2zM30.2 43c.2-.6-.2-2.2-.8-2.4-2 1 .9 2.9-.1 5a5.8 5.8 0 013 3c.7 0 1-.4 1.4-.6-.9-2.1-2.4-3.2-3.5-5zM42.5 46.3a4.1 4.1 0 00-.1 1.6c1.4-.3 1.5 1.9 3 1.5.3-.8-.4-1.5-.5-2.3l-2.4-.8zM42.6 57c-1-3.5-4 0-5.2 1.5 1 1.5 5 .3 5.3-1.5zM76.9 57.5c-.6 0-.5.4-1 .4.2.8.6 1 1.3.9a1.1 1.1 0 00-.3-1.3zM42.4 74.6a1 1 0 01.8.5c.7-.2.9-.7 1.4-1a2.3 2.3 0 00-2-1.5c0 .6-.5 1-.2 2zM267.8 17.6c-.6.8 0 3 1 3 .5-.7 0-3.3-1-3zM244.7 30.6a2 2 0 00.6-1 3.1 3.1 0 00-1.5-1.2c-.7.3-.4 1.6 0 2.2.4-.2.5 0 .8 0zM274.4 23.6l.2.9c.8 0 .5-1.3-.2-.9zM112 68l-.1.3v.4c.6.2.5-.8.1-.7zM103.4 78a2.9 2.9 0 00-1.7 0c0 1.9-2.2 3.2-1.1 5.2 1.2 1 2.6-.2 4-.1 1 0 2 .8 3 .6a4.1 4.1 0 003-1.4c-2-2-6.3-.3-7.2-4.3zM223.6 50.6c.7.1 1-.3 1.3-.8-.5-.4-1.7-.6-1.3.8zM138 73.7v-.4c-.5-.7-.8.8 0 .4zM112.3 83.7c3.9 1.6.8-4 0 0zM293.3 44.5c1.5 1 2.2-.5 3.3-1.3 1 .8 5.5 1.3 5.5-1.4-1.6-1-3.9-1-4.7-3.5-.2 0-.3-.2-.6 0L293 42c.4.9 0 1.4.3 2.4zM311.3 38.2l-.1-.4c-.5-.6-.8.9 0 .4zM302.7 45.7c-1-1.5-2.8.4-4.3 0a3.8 3.8 0 000 1.6c1.2 0 4-.3 4.3-1.6zM305 47.2a.9.9 0 00-1.4-.3c.1 1.2 1 1 1.5.3zM308 48.5c0-.3.2-.3.2-.5-.3 0-.4-.2-.7 0l.2.6zM364.8 35c.2-.4 0-1.6-.7-1.2.2.6.2 1.3.7 1.2zM366.8 35.6v-.4l-.7.1.1.5zM184.8 87.2c-.6-.2-1.4.3-2 .3-1.2-.2-2.6-1.5-3.8-1.6-.8 0-1.2.4-1.8.3 1.6 3 5.1 3 6.5 6.6 2.7.7 4.7-1.7 4-3.4a7.8 7.8 0 00-2.9-2.2zM55.6 117.3c.6-.3.7.2 1.2 0v-.7a1.6 1.6 0 00-1.2.7zM367 43.2c-1-1.2-3.7-2.5-5.8-1-.6.5-.8 1.8-.9 2.7 2 .1 5-.2 6.7-1.7zM59.4 118.4c.4.1 1.2.4 1.6-.2-.1-1.7-1.8-1-1.6.2zM350.2 45.4c.5-.2.6.2 1 0v-.5c-.3-.5-1 .2-1 .5zM340.8 51.5c-.4-1.2-2-.4-2.4-1.4-.2-2.9-2.4 0-3.2.6.8 1.7 4.6 3.1 5.6.8zM314.7 57.5c0 .5.3.8.6.8 0-.3.3-.4.3-.7-.3 0-.5-.2-.9 0zM71 121.1c.6.6 2.6.3 3-.7-.5-1.6-3.2-.9-3 .7zM170.1 95a1.5 1.5 0 000 1.2c.7 0 .4 0 1-.2 0-.9-.4-1-1-1zM35.7 129.9c0-.6-.4-.6-.8-.7.1.4-.4.4-.2 1a.7.7 0 001-.3zM76.8 120.5c-.8.2-1.2.6-1 1.4a.8.8 0 101-1.4zM40 130.2c0 .8.8.6 1 .2 0-.8-.9-.6-1-.2zM185.4 97.8c-.6-.9-1.5-1.3-2.1-2.2-5.3.3.5 5.4 2.1 2.2zM81.5 123a1 1 0 00-.2 1.4c.4.5 2.9 1.8 3.3 1.6 2.1-.9-1.3-5-3.1-3zM345 59c-.2.6-.2 1.2.4 1.5a1.5 1.5 0 001.4-1.2c-.6-.1-1-.5-1.8-.3zM26 141.5a1.4 1.4 0 002.5-.8 1.4 1.4 0 00-2.5.8zM348.4 61c.5.6 1.8.3 1.7-.6-.6-.5-1.7-.5-1.7.7zM293.8 74.2c-.2 0-.1.4 0 .7 1.2.5.8-1.7 0-.7zM0 148a1.1 1.1 0 002-.7c-.5-.5-2.2-.3-2 .7zM322 73.7c.3-1.2-1-1.6-1.5-2.5h-.4a19.7 19.7 0 01-1.1-1.8 4 4 0 01-1.5-.2c0-1.7-1.5-2-1-4.4-.4-.5-1.1-.7-1-1.7-.7-.6-1.5 0-1.6-1.2-.9.8-2.3-.5-2.9.6-.5-.2-.8-.7-1.4-.8a5 5 0 01-1.6 2.5c-.4-.4-1-.5-1.3-1.1.3-2.1-.7-3.6-2-3.3-1.6.3-2 4.4-.3 5 .5.2.7-.2 1.4.2 0 1.2-.8 1.1-1.2 1.7.1 5.5-3.5 2.8-4.2.3 0 .6-.3.7-.7.6-.5-.4.5-1-.3-1-2.4.4 1.4 3.1 1.5 5-1.5 1.3-.7 4.8-1.8 6.2 1 1.4.5 3.2 1 5 .3 1.4 1 2.7 1.5 4.5s.7 3.7 1.6 4.5c1.8 1.4 3.6 0 4.8-.5 1.5-.7 2.7-2 4-1.8.4-2.7 1.6-4 3.5-4.5-1-3 1-8.4 4.1-7.7 1-1.1 1.9-2 1.9-4a1.4 1.4 0 01.6.4zm-17.7-2.5a.6.6 0 01.3.6.6.6 0 01-.3-.6zm6.3 5c-.3-.2 0-1-.4-1h-.2l-.2-.1v.6c-.2-.8-.8-.4-1.2-1.2.2-.6.5.2.8.1v-.4-.6c.3 0 .6 0 .6-.3-.7.5 0-.6 0-1.3.2.1.2.6.7.5a1.5 1.5 0 000 1 .6.6 0 01.8.1c-.3 1.5 0 1.6-1 2.6zm4.2-.5c-.1.9-1 .1-1.2.4-.4-.5.8-.5 1.2-.4zm-1.7-2h.5c.1.7-.3.6-.4 1h.2v.2c.8 0-.3.8-.2 0v.1l-.1-.1c-.2-.4.3-.5 0-1.3zm1.5 4.4l-.5.2c-.5-.3.5-.1.3-.8a.8.8 0 01-.7.1c.7 1-1.4.9-.5 1.4-.2.4-1-.2-.7-1 .6 0 .6.5 1 .2a.5.5 0 00-.5-.5c.5-.7 1.4-.8 2.1-1.2a2.7 2.7 0 00-.5 1.6zm2-4v-.7c.6 0 .5.4.8.5-.2.4-.3-.2-.8.1zM352.5 61c0 .3-.4.3-.5.6.1.7.5 1 1.2.8 0-.3.2-.4.3-.5-.1-.7-.6-.8-1-.9zM327 68.4c.6.4 1.9.2 1.7-.9-.6-.3-2-.2-1.7 1zM81.1 132c.7.8 3 .3 2.9-1-.4-1.4-3.9-1.4-2.9 1zM33.7 143c.2 1.5 2.5.9 3.4.2l.1-.4c0-1.8-3.4-1-3.5.1zM41.5 143.7c-.3-.7-.8-1-1.3-1.5-1.4.2-2.1.8-1.6 2.2 2 .3 5.1 3 6.6 0-.6-1.4-2-1.3-3.7-.7zM86.3 132.1a3.3 3.3 0 00.7 2.5c1.3.4 4.4-.1 4.2-2-1-1.2-3-1-5-.5zM22 156.2c0-.3.2-.5 0-1-1-.5-1 1.2 0 1zM23.3 157c.4.8 1.5.5 2.3.5 0-.4.4-.7.2-1.3-.5-.2-2.6 0-2.6.8zM105 136.4a.8.8 0 001 .7c.7-.7-.5-1.4-1-.7zM406 64c-.6-1-2.7-1-2.7.4.4.8 2.6 1 2.6-.4zM94.5 143.3a1 1 0 001.1-.3c-.2-1-1.4-.7-1.1.3zM211.7 126c-2 1.4 2 3.2 1.6.7-.2-1.1-1-1.1-1.6-.7zM460.8 89.6l-.4.1-.1.3v.4c.2 0 .3 0 .3.2l.4-.1c0-.1 0-.3.2-.3l-.1-.4c-.1 0-.3 0-.3-.2z"/>
  <path d="M491.9 22c.4-1-2.5-2.3-3.3-1 0 1.5 3 1.9 3.3 1zM628.8 56.6c.5.1.7-.2 1-.2 0-1-1.5-1-1 .2zM607 48.9c0-.6-.4-1-.4-1.7-.7 0-.9.6-1.4.8-.1 1.3 1.2 2 1.8.9zM661.8 60.3c.5 2 4.8 2.2 6.6 2a4.3 4.3 0 00.9-2.4c-2.5-2-5 .4-7.5.4zM631.6 47.2c-1.8 3.1 2.2 4 3.6 2.9a21.3 21.3 0 00-.7-2.9 6.2 6.2 0 01-2.9 0zM683.2 59.8c-.2 1.2 1.7 2 1.8.2-.5-.8-1-.4-1.8-.2zM709.4 53.3c.1-.7-1.2-.8-1.5-.6a1 1 0 001.5.6zM676 .6c-1-.1-1.5 2-1 2.8 1.1.3 1.5-2.2 1-2.9zM514.5 33.3h-.2V33c-.4-1.3-2.8-1.8-3.1.1.9.7 2.8 1 3.3.2zM957 46.8c-.4-.4-1.4.3-2.2.7.2 1.3 2.8.5 2.3-.7zM949.5 53.4c.6 0 1.4.3 1.6-.5l-.3-.7c-.6-.2-1.3.6-1.3 1.2zM961.6 49.2c0 .7 1 .3.8-.1-.3.1-.4-.1-.8 0zM952.9 56.4a2.4 2.4 0 004.4.2c-1-2.6-5.5-3.2-4.4-.2zM979 50.7c1.6.2 4.1-1.6 4.5-3-1.6-.1-6.8.2-4.5 3zM1020.9 49.7c1 1.5 2.1 3.4 3.5 2.3 1.7-1.3-.8-4.9-3.5-2.3zM1036.7 63.9a2 2 0 00-1.5 2.4 1.7 1.7 0 002.2 0 1.7 1.7 0 00-.7-2.4zM1046.4 60.6c.8 1.2 4-.5 3.4-2-1-.7-4 .1-3.4 2zM1039.3 72.2c.6-.4.5-1 .6-1.5-.4-.2-1.3-.2-1.5.5 0 .8.6.6.8 1zM1045 72c-2-1.3-5.7 2.5-6.6 4 1.4 2.3 6.1 2.8 7.5 0a3.6 3.6 0 00-.9-4z"/>
  <path d="M17.3 1c.3.8 1.2.7 1.6 1.4-.4.3-.5.8-1 1-1.3-.4-2.3-1.8-3.4-.1.5 1 1 2.2 1.8 2.7 1.1-.8 3-1.5 4-.6-.1 4.2 3.1 3.8 3.8 7.4 1.6.2 3.6 1.5 5.7 1.2 1.6-.1 3.3-2.1 4.6-.7-.4 1.4-1.4 2.6-.1 4.3-2.7 3.4-6.8-2-9.3 1.9l.5 2.1c-1 .5-2.4 1.8-3.6 1.8-1 0-1.2-1-2-1a3 3 0 00-.3 2.7 19.6 19.6 0 003 1.7c1.9.5 4.5-.6 4.6 2.2-2.3 2.2-4.4-.5-6-1.4-1.7-.3-5.3.2-4.6 2 2.6.5 4 2.9 5.8 4.8 1.8-.6 2.9-1.1 4 .2.4.5.4 1.5.8 2 1.3 1.6 4.8 1.4 4.7 4.7 2.3.6 4.6 3.9 7.3 2-.7-1.4-3-2.1-1.7-4.3.4-.6 1.8-.5 2.2-1a6 6 0 00-.3-3.5c-.6-.5-2.4-.2-2.1-1.3 2.4-1.9 5.2.7 6 3.7 1 .8 2.9-.2 4.2-.6.7 1 2.3.8 3 1.9.6.8.5 2.4 1 3.4s1.4.8 1.4 1.8c-1.4.9-2.7 3.2-1.5 4.7 1.6 0 .8-1.4 2-1.6 1.7 1 3.4 2 3.6 5.6 2.3 1.2 4.3-1.4 5.8-2.3 2.4 1.9 2.2 5.2 1.4 7.9A10.8 10.8 0 0166 59c-1.5 1-1.8 2.9-2.9 4.2.7 2-.2 3-.5 4.2 1.4.6 1.1 2.4.8 3.6 3.5.7 5.7 5.7 9.7 2.1.5-.5.5-1.4 1.3-1.9.4-.3 1.2-.1 2-.5 2-1 2.4-5.2 4.6-2.3-.4 1-1.4 1.4-2 2.1.4 1 1.6.8 2.7.7a9.9 9.9 0 00.8-2c1.6-1.6 2.5 0 4.1-.1a25.7 25.7 0 01.7-4.4c-1.9-1-5.5-3.8-5.2.6-3 2.4-4.4-1.7-7.5-.9-.2-.7-.7-1-1-1.7 2.2-1.5 1-6.7-1.3-7.3 0-.8 1.2-.7 1.9-1 1.8 2.8 7.7-1.6 10.1 0a22.4 22.4 0 003 5.8c1.5-.5 1.2-2.1 2.6-2.7.3-1-.8-2.8.1-3.3 1.5.8 1.8 2.4 1.6 4.3a.8.8 0 01.9.2c1 0 .3-1.4 1-2.5 1-1.4 3-1.6 2.3-3-.3-.7-1.3-.9-2.7-.4-.8-1.5-2.6-1-3.7-1.8.3-1 0-1.4.4-2 2-2.6 4.2 1.8 6.4 1.9s3.6-2.1 5.3-.5a6 6 0 00-1.5 9.6 3.6 3.6 0 00-.3 2.8c-.6.4-1.5.7-1.3 1.6 1 1 1.5-.4 1.8-1.3 1.3-.4.7-2 2-2.3 1.4.4 1.2 3.4 1 4.5-2.7 2.3-3.2 6.1-3.5 10a5.3 5.3 0 002.2.6c.8-.3.6-1.2 1.3-1.7a6 6 0 003.5 2c1-.5.8-1.5 1.7-2 2-1 2.6.5 3.8.7s2.5-.7 3.4-.7c1.6.1 3.2 2.2 5.3.3.6.5.8 1.8 2 1.3.7-.8-.2-1.7-.6-2.3-1.8 0-3-.8-5.2 0-.6-1.8-2.4-.8-4-1s-1.8-2-3.5-.8a12 12 0 01-3-2.4c.6-1.1 0-2.2-.5-3.5.7-1.3 1.3-2.7 3.3-3.2a9.3 9.3 0 011.7 1.1c1 .2 2.4-.5 3.3-.6 1.4-.1 2.1.7 3.5 1 .7 0 1.4-.3 2.1-.1s1.3.9 2 1c1.3.2 2.3-.4 3.4-.1 2.7.6 5.7 2.4 9.3 1.2 1.2 2 3.1.4 4.7.7.7 0 1.2.9 2 1 1 .3 2.8.4 4 .6 2 .4 4.2-1 7-1 1.1 1.4 3.4 1 5.5.1 1 .9 2.3 1 2.7 2.7 0 .8-1.4 1.1-.7 1.8 1.1.5 1.4-2.7 2.7-1 0 .9-.7 1.3-.8 2a24 24 0 014.7 3.6c.7-.3 1.1-.8 1.8-1.1 0-1.3-1-1-1-2.2 1-1.6 2.5 0 3.5.2 1.6.3 3.4-1.3 4.6 0 .3.9-.1 1.3 0 2 1 .5 2.7 0 4 .1 1 .5 2.3 3.6 3.8 3.6a2.2 2.2 0 002-2.5c-.3-1-1.3-.7-2-1.6a4.6 4.6 0 001.5-5.7c.6-.8 1.6-1.3 2-2.3-1-2-4.5.1-6.5-.2-.5-1.1-1.7-1.1-2.4-1.8a16 16 0 003.6-2.5c1.5 1.8 4.2-.5 6.3-.5 2.4.1 3.3 2.7 5.5 3.4l.3 1.7c1 1 1.4.7 2 1.5 2.3 3.4-1 6.6 1 9.4 3.2-.1 9-1.3 11.6-3-1.1-1-.4-2.7-.8-3.9-.2-.6-1-1.1-1.3-2-.2-.5-.1-1.3-.3-1.6-1.2-2.2-3.2-1.5-5.3-2.3.5-2 3.1-2.7 3.3-4.9a3.9 3.9 0 002-1.2c.5-1.6-1-1.7-1.6-3-1-1.6-.9-3.6-1.9-4.9 1.2-1.6 3.8-1.2 6-2 2.3 1.8 8.2 3.1 10.7-.1-.6-.7-1.8-.4-2.5-1a7.5 7.5 0 00-.7-2.5 24.5 24.5 0 00-6.3.7c-.5-.2-.8-.8-1.2-1-1.5-1-3.3-1-4.8-2 .7-1.2 2.2-.5 3.3-1.3.7-.5.8-1.9 1.5-2.4 1-.7 2.4-.7 3.3-1.3 1.2-.8 1.7-1.9 2.7-2.7a6 6 0 004.1 1.7c1.5 4.6 6.5 2 10.3.8.4-.8.7-1.6 1.7-2 .8.2 1.2 1.2 1.8 1.8l1.8-.4a7.4 7.4 0 007-.2c1-.7 1.5-2.8 3-2.5 2.3 2 5.6 2.2 9.4 1.6 1.5 1.6 2.6 3.7 4 5.3 1.9-1.3 3.8-3.5 6.5-3.6-.5 1.4-.5 3.2-1.6 4.2 2.5 1 5.7-.2 7.2-2.2 1 1.3 4 .6 5.7-.3.7-2.1-.7-5.3-2-6.5.7 2.9-1.3 3.9-4.3 4.2-1.6-2.6-4.8-2.6-6.6-5 .4-.7 1.5-.3 2.2-.4l1.2-2.3a12.7 12.7 0 007.4 2l.2 1c1-.1 2.1-.3 2.3-1.2-1.8-2.8-4.7-3.6-7.1-5.1-3.6 1.4-4.5-1.8-7.4-1.6-.5.6-.8 1.3-1.8 1.6-.6-.5-.9-1.8-1.3-2.6a102.7 102.7 0 01-12-2.6c-.4.5-.6 1.2-1.5 1.5-.8-.4-1.4-2.2-2.5-1-.4 1.1 1.1 1.2 1.8 1.8 1.3 1.1 2.5 2.2 5 1a9.2 9.2 0 001.6 2.5c.7.2 2-.4 2.6-.2 1 2 3.1 2.3 4.7 3.3-.8 1.5-4.1 1.6-5.4 1.2-.2-.9-.2-2.2-1-2-.2.5.2 1.5.3 2.3a7 7 0 01-3 1.3c-.6-.7-1-1.6-2-1.6l-1.3 2a3.9 3.9 0 00-3.6-.7c-.7-1.3-2.1-1.1-3-2 .4-1.4 2.8-1.4 3.7-2.3-.5-1-1.4-1.3-1.9-2.2-1.1.8-1.4 2.2-3.4 2.4-.8.7.1 2.5-1 3-.2-1.8-2.4-2.1-3-3.6a8 8 0 01-.2-4c.8 1.3 3.6 1.8 4.5-.2a7.2 7.2 0 01-1-3.8 25.2 25.2 0 00-8.4-1.3c-.3 1-1.8 4-3.3 2 1.3-.9.8-2.9 1.4-4.2 1.6 0 2-1.1 3.5-1.3s2.2 1.2 3.3 1.2c2.5.1 5.4-1.7 7.5-1.7 1.5.1 2 1.4 3.2 2.2 1.5-1.3 3.9-3.2 6.2-2.7 1.3.3 2 2.4 3.3 1.7-.1 1-1.3 1.3-1.1 2.5 1 0 1.7.4 3-.1.5-1.2.7-3.2 2.1-3.9s2.3 0 3.8.2a7 7 0 012.2-2l-.3-1.5c-2.8-.1-5.2-1-7.8-1.5a5.9 5.9 0 00-.1-2.6c-.7-.8-2.7.8-3.3-.1 2.3-2.3 4.3 1 7.3-.5.7 1.2 2.3.7 3.5 1.1.6.3 1 1.1 1.6 1.2 1.5.4 2.8-.5 4.3-.8.7.5 1 1.6 1.7 2-1.5 2.5 1.2 4.6 2.4 5.7 3.3.2 6 1.3 9.6 1 .3-.6-.5-.8-.6-1.6.9-1.9 2.2-4.2 5.2-4a7.8 7.8 0 011 4.7c-.8.5-1.8.8-1.7 2 .6 1 2 .4 3.3 0 .5.8.4 1.5.7 1.9.8-.2 1.7-.6 2.2-.1.7 2.4 1 4.6-.2 5.7.3 1 1.6.4 1.8 1.8l-1.9 2.9c-.9-.6-1.5-1.6-2.5-2a33.5 33.5 0 012-4 22.8 22.8 0 00-2.9-2.2 29.2 29.2 0 00-2 3c.1 1.4 1.5.7 1.8 1.8a3.6 3.6 0 01-3.4.4c-.7-3-3.7-4.8-6.1-2.3 1.4 1.4 3.3 2 5 2.8-2 1-2.4 3-2.7 5 1.1.5 1.6-.4 2.6-.2 1.4.1 2.7 1.7 3.9 1.7 1.6 0 2.9-1.4 5.3-1.5a16.3 16.3 0 00.5-2.2c2.7-2 3.4 1 3.5 3.6 2.3.3 3.9 2 6.9 1.2 1.6 3 5.4-.2 8.8-.2.8 0 1.7 1 2.5 1 2.1 0 4-1.4 5.8-1.2.8.2 1.5 1.2 2.3 1.3 2.7.2 6.1-1.7 8.9-2 2.2-.4 3.2.4 4.9.5.7-.3.5-1.3 1.3-1.6a4.6 4.6 0 001.7 1.3c2-.4 3.5-1.7 5.3-1.5.7 0 1.1.9 1.8.9a5.8 5.8 0 003.6-1.6c-.2-.8-.9-.8-1-1.8.8-1.2.4-3.2.6-4.8a5.3 5.3 0 012.6.4c-.4.5-1.1 1.5-.4 2.2 1.5-.2 1.2-3.1 3.5-3.4a3.7 3.7 0 01.2 4 11 11 0 011.9 2.3c4.5-.6 9.9-2.8 14.5-3a4 4 0 001.5 1.2c2.8 0 6-2.2 8.1-1.8 1 .2 2.4 1.7 3 2.2-.6.9-2.6.7-2.8 1.8a5.1 5.1 0 01.9 2 11.3 11.3 0 00-1 2.1 7.5 7.5 0 00-5.6 2 3.6 3.6 0 00-1.1-.8 2 2 0 001.7-2c-1-1.4-4-.4-4.3 1.3l.2.1c-2.5 0-5 1.2-3.5 4.2.7 1.5 1.8.3 2.8 2.5-.4 2.6-2.4 1.5-3.9 2.9.4 3.5-1.4 4.5-3.2 5.6.5-.3 1.3 1.3.8 1.6-3 3.7-8.5-2.6-11 2.7a4 4 0 00.4 3.5c1.7 2.6 3.6-.3 5.6 2.5-.7 2.4-.3 5.3-.8 8-.3 1.5-1.2 2.7-1.3 4a11 11 0 002.2 6.6 10.3 10.3 0 006.7-3.3c-.2 6.9 8.5 6.8 7.6.4-.4-2.8-2.3-3.2-4.4-4.3.8-2.9 4.7-8 7-4.8 0-2.9 2.5-2.6 3.9-2.4.5-.5.8-2 1.4-2.4 2.1-1.8 3.6 1.7 5.7 1.6.7 0 1.2-1 2-1.4l5.4-1.4c2-.6 4.4.5 5.9 0 1.8-.5 3.4-2.6 4 .9l-.5.6.2.1.1.4c.8-.4 1.5-.4 2.2 1a6.8 6.8 0 01-2.4 2.2c-.3-.3-.6-.6-1.2-.4a3.5 3.5 0 00-.1 1.4 8.4 8.4 0 00-.6.6l.2.1.1.4.4-.1v.5c1.2 1.1 4.2-1 5 .6-.4.8-1.3 1.3-1 2.5 2.2 1.5 6.9-1.7 9.4-1.7.8 0 1.4 1 2 1s1.8-.8 3-1a17 17 0 001.7-.3c1-.6 1.6-2.2 2.6-2.4a2.7 2.7 0 01-.1-.6c4.2-1.1 8.6 1.7 12.3-2.1a6.7 6.7 0 001.8 1.5c3-1.5 6-4 8.7-2.5-3.7 3.7-2.2 7.9-.9 12 2.8 1 5-1.7 6.8-4.7.2 1 .5 1.1 1.2 1.3 2-2.7 1.3-7.6 5-7.5.6-.9 1-1.8 1.7-2.6a6.4 6.4 0 011 .2 1 1 0 000 .8c.5 1.6 5.5.2 5.8-1.7-.6-.6-3-.6-4.5 0 .3-.8-.9-1.8 0-2.5.6 1.5 1.4.7 2.2-.3.5 0 1 1 1.4 1 1.8-3.5 4.1-1.2 6.2-1a13.9 13.9 0 00.2 1.9c-1.2-1.3-4.3-.5-2.7 2.7a2.7 2.7 0 002 0c.2.5 1 .9 1.4 0l-.4-.6a1 1 0 00.2-.2 2.3 2.3 0 000-1.2c.3-.7.8-1.6 1.3-1.3 1.2.7.9 3.2-.2 4.5.5.4.4 1.7-.2 2.7 1.4-.1 1.3-1.3 2-2.6.6.6 1.3 0 1.8 1 .2 1.8-1 3.5.7 5.3a3 3 0 002.3-2c.2-.8-1.3-1.6-.6-2.3 2-.2 4-1.2 6 0 .2.5-.7 1 0 1.6 1.1-.7 2.1.4 3.1 1.3-.5 1.1-1 2.2-.4 3.4 1-1.5 1.7-1.7 2.3-3.2a34.5 34.5 0 015.9.5c.4 2.1.6 2.1 2.2 3.1-1.4 1.1-3.6 3.6-5.1 5s-3.3 2-4.7 3.7c-.7.9-1 1.9-1.6 2.6-1.5 1.6-4.5 4.6-2.5 4.3.3 1.6-1.2 3-1.5 4.6l.2-.2.1.3c2.7-3.8 5.9-4 7-7a2.7 2.7 0 00-2.6-.6 25.2 25.2 0 012.6-3.6c1.2-1.2 2.2-1 3.6-1.7 3.4-2 6-6 9.3-7l.9 1.2c.5 0 1-.5 1.5-.3.4.9.8.7 1.2 1.2 2.1-.1 4.4-2.4 6.5-2.1-.5-.7.5-1.3 1-2s.8.8 1.3-.1c0-2.1 2.2-2.6 3.2-5.2.2.1.3.3.4 0l-.2-.2.2-.2c-1.3-1.1-.2-2.2.7-2.5l.6.7c-.5.5-.3 1-1 1.5l.1.3-.2.2a3 3 0 011.8 1.5c-.8.5-1.5.3-2.3.7 1 2.3 2.4 2.3 4 5.1.1 1.2-1.1 2-2 2.6 1.2-.1 1.7 0 2 1.7a4.3 4.3 0 002.6-1c7.2-5.7 14-16.3 20-21.6-.9-.8-1.9.4-2.8 0-.4-.8.2-1.5-.6-2.3-.5.8-.9.2-1.3 0-.3-.6.4-1-.3-1.8-.8.7-3-.8-2.6-2.2a5.4 5.4 0 003.1-2.6 1.4 1.4 0 001 .4 1 1 0 00.6-.3 9.5 9.5 0 001.1.2c2.6 2.3 6 4.7 9.7 2a13.1 13.1 0 004.8 1 1.8 1.8 0 00-.2-1l1.7.3c2.3-2 5.9-.6 9.8.5.8-.8 2.7-1 2.7-2-.3-1.5-3.5-1-3.8-2.6.8-1 2.2-.4 3.7 0 4.2 1.2 7.7-.3 7.2 4.5a5.2 5.2 0 001 .7 1.4 1.4 0 00-.7 2.2c1 1.4 4-.6 6 .4.8.4.6 1.4 1.7 1.6 5.4.4 11.2-.2 16.3 1.3.8-.4 1.4-.2 2.3-.9a2.2 2.2 0 002.5 1c1.3.4 2.7.7 3.6.3a1.2 1.2 0 00.2-.2 5.7 5.7 0 002.6-2.1L618 54a5 5 0 01.4-.9 6 6 0 011.8-1.8c.6-.3 1.4 0 2-.4.8-.5.6-1.4 1.4-1.6.9.2.2 1.6.6 2.1 1.2 1 3.1 1.3 4 .4.8.3 1 .9 2 1 1-2.5-1.2-4.3-2.3-6-1.3-.2-1.4 1.7-2.5 2-2 .4-3.4-1.4-4.7-2.6a13.4 13.4 0 001.6-2.3 6.2 6.2 0 002-.1 25.3 25.3 0 009.6.7c.8 1 2 .7 2.9 1.3l1.3 2a1.9 1.9 0 00-.8.6c.3 1.5 1.2 1.3 1.2 2.3 0 2.6-3.8 2.1-2.6 5.4 2.3 2 4.7 0 6-1.7 2.8.1 4-2.7 7.5-1.7a20.3 20.3 0 001.7-1.3c3.8.7 7.2.7 9.6-1.2a4.8 4.8 0 01-.5-.3 10.7 10.7 0 002.5.7l-.1 4.3a7.9 7.9 0 002.5.7c1.2 1.2 2.4 2.2 4.6.4.8-.3 1.3.6 2.1.3a1.6 1.6 0 00-.1-1h.5a4.7 4.7 0 00-.4-1.9c1-.7 2.4-.4 3.3-1.2.4 1.3.8 3 1.7 4 1.2.8 2.2-.5 3.4-.4s2.7 1.7 4.4.2c1 1.4 2.7 0 4.3 0s3.7 1.5 5-.8c-.7-4-3.5-3.8-6-4.1.9-.4 1.6-.2 2.2-1.2.8.1 1 .7 1.7.9.8-.4 1.1-1.7 2-2 1 1.8 1.7 3.9 4.5 4.5 1-2.4 3.2-4.4 5.8-2 1.5-1.5 6.8-2.2 7 1.3a7.5 7.5 0 001.6.7c-2 2.7-3.9-.2-5.6 2.5a4 4 0 00-.5 1.6 3.5 3.5 0 00-.7.2 1.3 1.3 0 00.7 1.2 2.4 2.4 0 00.2.4c2.4 5.3 8-1 10.9 2.7.5.4-.3 2-.8 1.7 1.8 1 3.6 2 3.2 5.6 1.5 1.4 3.5.2 4 2.8-1 2.3-2.2 1-2.9 2.5-2.3 4.7 5 5.2 7 2.8a7.5 7.5 0 005.5 2 8.8 8.8 0 002.3 3.7c1-.7 2.1-1.3 3.3.6-.9 2-.5 6 2 5.5-5.5 9.1-12.8 10.5-19.6 13.5.4 1.2-.8 1.2-1.4 1.9v.4l-.2.3c4.5-.8 9.3-4.7 14-6.9 1.5-.7 3.7-.7 4.9-1.5.8-.5 1.1-1.8 1.9-2.2s1.6.3 2.8 0 2.5-2.1 3.8-.6c.8 1.3-1.6 1.6-1.5 3.1 2.4-.4 4.6-3 7-2.8.3 1-1.4.8-1 1.8 1.7 2 3.1-.6 4.8-.4a10.2 10.2 0 01-4.6 8.4h.3l.1.4c2.6-1 5.1-3.3 7.8-4 .5 1.6-1.6 1.4-2.3 2.6l.3.1.1.3a5 5 0 002.5-1c.2.2-.1.5-.3.8 1.1-.3 2.8-.8 3.2-2.5a30 30 0 003.9-1c-1.7 1.5-5 3.3-7.1 6l.3.1v.3c.5.4-.5 1-.6 1.4l.3.1.1.4c3-2.4 6.2-3.6 9.4-5.4-.3 1.5-1.8 3.3-2.2 4 .6 0 1.2-.4 1.8-.1-.4 4.9-4.8 8-7.9 11.5l.3.1.1.3c4-1.8 8.4-7.3 11.6-11.8l-.2-.2.2-.3c-1-.1-2 1-2.9 1.6 0-1 1.5-2.2 2-3.3-.5 0-1 .3-1.7-.5 0-1.2 1.7-2.6 2.4-3.9 1.3 1 0 2.3.7 3.4a4.5 4.5 0 011.6-1.3c1.3 1.5 1.4 3 2.7 4.5 1.2.4 2.3-.7 3.5 0 1.1 2.3-.7 4.9 2 7 2.6-.6 4.9-5.9 7.9-7.6.7 1.8 1.8 4.3 1.2 6.4-.2 1-1.2 2-1.6 2.9-.9 2-.9 4.5-1.5 6.5-.8 2.2-2.3 3.7-1.8 5.8 3.7-.9 2.3-6.7 4.5-10.1 1.3-2 2.7-4.9 4.9-5.4 0 .7-1 1.5-.6 2.3a5 5 0 005.3-1.2c1-1 1.7-4 3.6-6 .5-.5 1.4-.4 2.1-1 .5-.5 1-1.5 1.4-2 1-.8 2.2-1.1 2.7-1.8 1.3-1.7 1.5-5.4 2.8-6.3 1.2-.9 2.5.7 3.4.6 1.4 2.2-.5 6.6 2 7.3-.7-3.7.5-7.6-1.7-11.2-.6.5-.2 1-.7 1.4-.4-2.1 1.6-6.5 3.8-6.2.8.7-.2 1.5.9 2.2 1.6-1.9 1.7-4.9 3.3-7s3.6-2.7 5.5-4c.7 2-.5 4.2-1 6.3 1.7 1.8 1.6-2.4 2.8-2.5.8.6.1 1.5.5 2.2l.1.3.2.3c.7 0 .9-1 1.2-1.6a39.9 39.9 0 00-2.3-3.7l1.7-2.4c.3-.3.7.3 1 .6 2.3-1.7 4.7-1.6 7-1 .5-.7-.4-1.2-.4-1.8 1.5-2 3.9-4.3 6.2-.5 0 2.1 1.4 3.4 1.3 5.5s-1.3 4.6-1.7 6.7a19.4 19.4 0 000 3c-1.2 1.7-1.7 3.3-.3 4.8 2.4-3.2.8-8.4 3-12 1-1.5 3.1-1.8 3.5-4.8 1 .4 2 2.5 3 3.6h.2v.2a2.2 2.2 0 01.1-.2c1 1.8 0 3.7 1.3 5.5 1.5-1.2.5-4 .4-5.9 1.5-.4 2-2.9 1.8-4.5 1.9-.8 1.2-2.8 1.6-4.2.4-.5 1 .8 1.4 1 .6-.5 0-.9.2-1.3.8-.6 1.7.7 2.5 0 1-.9.3-1.6.6-2.3.9-.5 0 1.1 1 1.5a12.9 12.9 0 01-.2-6.2c.7-.4 1 1.1 1.4 1.5 1.5-1.2-.4-2.2.7-3.4 1.4-.8 1.2 1.8 2.2 1.8v-2.4c1.4-.8 1-1.8.4-3a.9.9 0 011.4-.2 7.4 7.4 0 00.2-1.7c.8.7 2.2.3 3.6-.2a2.4 2.4 0 010 3c1 1 1.7-.7 2.6-.3.5.8-.5 1.7 0 2.5 1.1.5 2.2 1.2 3.2.9l.2 1.3c-.5.7-1 1.3-.5 2.2s1.6.6 2.5 1c1.3.6 3 1.8 4.3 1.9l.2-.1a2.6 2.6 0 00.2.6c1.3 2.5 3.4 2.6 5.2 2.5a5.3 5.3 0 00.2-7.6 4 4 0 00.1-2.8c2-2.2 5.7-3.2 7.5-2 2-.9 5-2.4 4-3.9-1.7-.5-4.5 1-4.2-2.5 2.7-1.4 4.4-3.3 6.8-3.5.8 0 1.6.8 2.4.7 2.1-.2 3.8-1.8 5.7-3.2.9.4 1.5 1.6 2.3 2.4-2.3 4-1.7 9.5 1.5 14a11.7 11.7 0 006.9-2.5c.7-.7.6-1.8 1.4-1.9a2 2 0 011.9.8c.8 1.7-1.7 4.3-1.2 5.5s1.7 1.3 3.8 0c1.5.7 3.3.8 4.8 1.7a11.4 11.4 0 014-2.4c.5-1 0-2.3 0-3.5 1.7-2.3 4.5-.1 5.7-2.7-2.6-.5-1.6-5-2.8-6.5-1.3-1.6-3.2 0-5-1.5 1.6-1.6 2.7-3.2 1-6-.5-.9-1.6.2-2-1 3.7-1.4 3.9-4.2 4.7-6.7-1-1-2.6-.2-3.9-.3-.8-2.6-4-3.1-3.8-5.4 1.1 1.6 3 .7 4.2 2.2 2.7-.6 5 .1 7.7-.9a6.2 6.2 0 01.7 4.6 14 14 0 013 4.8l1.6-.8c1 1.4 2.6 0 4.3 0 .8 0 1.6.7 2.5.6 3.3-.4 7.7-4.6 6.9.6-1.3-1.5-4.4-.7-4.4 1.7 1 1.2 3-.8 3.8.5 0 2.8-3 2-4.6 3.5 0 1.9 2.3 1.5 3.4.2a8.5 8.5 0 001.5 1.1c3.1-1.4 6 2.1 8.8-1.4-.2-4.2-4.3-3.6-5-6.3 1.2-1.2 2.6.8 4.6-1 .6-.9-.6-2.5-.2-3.4 1.3-.5 3-2 3.9-1.5a9.9 9.9 0 00.8 4.8c.7.8 1.9 0 2.6.6A4 4 0 00985 45c.6.5 1.6-.1 2 .6 1.8 2.7 4.8 1.7 7 2.7l2-1c2 1.5 2.7 0 4.1-1.3s4-2.5 3.1-4c-.8-1-2.2.2-3.5.1-1 0-1.3-.8-2.2-.5-1.7.6-1.6 2-2.9 3.4-1-1.7-2.2-.9-3.7-1.6-2-1-.7-1.3-.8-3 0-1.2-1-1.6-.7-2.9l7.4-3.8c1 2 2.3 2 3.5 2.9 1.7 1.1 1.5 1 3.8 0 3.5-1.5 6-2.7 7-4.6 1.3 2.6 4 1.3 6.5.5 1 1 2.3 1.1 4 .4.4.7 1.8 1 1.6 2-3.4-.4-7.9 2.8-10.8 1.3-.7-.3-1.2-1.3-2-1.4-2 .6-2.5 2-3.4 3-1.4-1-3.6.7-3.1 2.2 1 2.7 4.7-.5 7.6 0 1.2.3 2 2.4 3.6 2.6s3-1.6 5.2-2.1c1.3-.3 2.4.3 3.2 0 1-.5 1.4-2 2.4-2 1.3 0 1.6 1.4 2.3 3-2.2 3.5.6 9.1 1 13.7 2.7 1 2.7 6.4 3.5 8.1 1.3.5 3-.6 4.6-1-.8-4.5 3.1-2 5.3-3s2-2.5 3.6-4.5c-.1-1.2-.7-2.5-.7-3.5 1.3-2 4-2 5.7-1.9.4-1 2.1-2.3 2.3-3.6.1-1.7-1-3.5-.8-5.3 0-1.2.9-2 1.2-3.1.1-.8-.4-1.5.2-2.3 1.5-2 2.3.3 3.9.2s1.9-.8 3.5-1.8c1.1 0 1.7 1.5 3 1-.1-2.7 3-4 3.8-6.4 1.4 1.1 3.6-.2 3.7-1.5.3-3.5-5-5.6-8-3.1 1.3-2.5 5.5-4.9 4.5-7.3s-5.4-.4-5.1-4.2c2.9.7 6.8-1.8 4.2-4.9-.7-.8-1.3.1-2.8-.5-.5-.2-1-1.1-1.5-1.2-.9 0-1.8 1.2-2.6.5a18.2 18.2 0 003.5-2c.7.2 1.2 1 1.9 1a12.7 12.7 0 003.6-4.8h-131a.3.3 0 01-.6 0H795.6l-.1.6-.6-.1a.6.6 0 01.3-.5h-3.6a12.7 12.7 0 00-2 .8c-.7 0-.6-.6-1.3-.6-1.1 1.3-4-.2-5.5.4a2.4 2.4 0 00-.4-.6H778a2 2 0 00-.4.5 13.5 13.5 0 00-2.4-.5h-6.2a.6.6 0 01-.2 0h-69.3c0 .5-.2 1-.3 1.4-.5.5-1.4.1-2.3-.1-.2.4-.2 1.1-.6 1.8-1.3-.3-2.7-.9-3.3.1 0 1.1 1 1.5 1.6 2a7.7 7.7 0 01-1 4.7c-2.9.2-4.3-2.2-5.1-4 0-.8.8-1 .5-1.7-3.5-.2-6.2.9-9.5 1-1.3 1.2-4 3.2-2.4 5.7a3.7 3.7 0 00-1 1.2 2 2 0 00-.7-1c-.7-.5-1.3 0-2.6-.1-1.4-.2-3.4-.8-5-1a17 17 0 012.1-.2l.3-1.5a6.8 6.8 0 01-2.4-2.2c-1.5.3-2.4 1-3.8.2s-1.6-2.7-2-3.9c-1.4-.5-2 0-3.2 0 0 1.1 1 1.5 1.2 2.5-1.4-.8-2 1.4-3.3 1.6-2.3.5-4.7-1.4-6.2-2.6-1.2.8-1.7 2-3.2 2-2 .2-5-1.7-7.5-1.6-1 0-2 1.4-3.4 1.2s-1.8-1.3-3.4-1.3c-.6-1.3-.2-3.3-1.4-4.1H86.1a12 12 0 001.7 2.4 2.4 2.4 0 01-3.4-.5c-2.6.7-4.3 2-6 .6A3.5 3.5 0 0077 0H49.4l-.1.2c.4 1 1.4 1 2 1.7.2.4 0 1.2.3 1.7.4.9 1.7 1.1 2 1.8.4.8.3 2.1.7 3.2-1.2 1.7-2.8.8-3.8-.2a5.6 5.6 0 00-2.4 1c-.3.8 0 2-.5 2.4-1.9-.7-1.4-5.6-2.8-7.1-2.3 0-4-1-5.6-2-.1-.6-.2-1.4-.5-1.7-2.3.3-5.8 0-6.8 2.1-2.4 0-3.2 2-4.8.8A4.9 4.9 0 0031.9 0H17.3v1zm165 69.1c.7-1 1.2.4 0 0zm48.3-48.4c0 .7-2.4 1.4-2.4.4.3-.4 2-1.1 2.4-.4zm533.8 82.4c.4-.8 1.7-2 1.6-.8-.5-.3-1 1.7-1.6.8zM1058.7 9a17 17 0 01.4 2.8c-1.7.6-2.8-.9-4.6-.1.8-1.1 3-3.5 4.2-2.7zm-18.2 35.1c.5.8-1 .8-1.5 1.3.4-.4 1-1.6 1.5-1.3zm-70.3 3.2c0 .4-.4.5-.7.7-.2-.6.3-.9.7-.7zm-19-18.6c0 1.2-1 2-1.5 3-.5-.9-1.4-.6-2.3-.5l-.3-.9c.9-1.2 3-1.6 4.1-1.6zm-54.4 25l-1.6-1.9a11 11 0 015.4-1.9c-.1 2.2-1.8 3.4-3.8 3.8zm5.6-6l-.4-1a1.4 1.4 0 011.1-.3c.5.6-.1 1-.7 1.2zm1.3-17.5a2 2 0 013.1 2c-.8-.1-1.5-.7-2.5 0-.6-.7-.3-1.2-.6-2zm13 13.5a4.8 4.8 0 00-5.1 1.7c-.5.5 0 1.4-.2 2-1.6 1.7-2.6.2-3.8 0-1.4-.2-2.5 1.1-3.1.3.4-1 4-1.8 3.4-3.7-1-.6-1.7-2-2.4-3.8 1.8-1 .3-3.4 3-4 1.3 1.3 1.7 3.4 1 4.5.2.3.5.2.7.5 1.3-.5.4-1.8 1.6-2.2 1.5 2 3.7 1.6 5.2 3.7-.4.1.2.7-.3.9zm1.4 2.2a4.2 4.2 0 01-.2-1.8c1.2-.1 2.5-.7 3.2.6a9.6 9.6 0 01-3 1.1zm.5-5.2l.5-.2.2.4-.5.2-.1-.5zm-17.4-31c1.2-.3 2.1-1.7 3.4-2s2.2.8 4.2-.2c2.2-1 3.7-3.2 6.6-3 .7 0 1.4.8 2.3.8 2.1-.2 4.3-2.1 5.8-2.5s3.2.8 5.4-.8c1 .9 2 2.2 3 3.2 2.8-1.4 5.3-1.9 7 0-1.6 1.8-5.5 3.6-6.8 1.2-2.5 1-4 2.8-6.5 3.1-1 .1-1.8-.8-2.8-.7-.7 0-1.4.7-2.2.8-1.4.2-2.2-.5-3.1 0a5 5 0 00-2.2 1.9c-2-.5-4.5.9-6.2-.4-3 1.7-5.3 1.2-7.2-.2 0 .7-.6 1.1-1 1.6-1.7 0-3-.8-4.9 0-2-5.3 4-2.4 5.2-2.7zm-15.4 28.8c1 1.7 2.9.3 4.5-.1 1.9 2.3 5.2 3.6 5.4 7.7a5.3 5.3 0 01-2.4.3c-1-1.5-1.7-3.7-3-4.5a3.4 3.4 0 00-2.5 1.1 61.6 61.6 0 00-4.4-4.5 3.6 3.6 0 002.4 0zM877 55.6a12.6 12.6 0 01-2 .8 4 4 0 01.8-1 21.7 21.7 0 00-.7-2.5l.3-.5 1.2.5a3.8 3.8 0 01.4 2.7zm.4-17.8a7.4 7.4 0 011 .9c-.8.7-2.8 1.1-3.3.6a6.5 6.5 0 012.3-1.4zm-32.3 34.6c-.3.4-.6.9-.9.3a.6.6 0 011-.3zm-74.8 28.3c-.4.6-.8 1.2-1.2 1.2-.9-.7.9-1.9 1.2-1.2zm-2.5-99.3c-.5 0-1 .2-1.2-.3 0-1 1.6-.6 1.2.3zm-26 87.6c-.2-.2-.4 0-.6-.1.3-.4.6-.9 1-.3l-.4.5zm-4.2-41c.8 1 1.8.7 2.8 1 .8.3 1.2 1 1.7 1 1 0 1.7-.9 2.6-1 1.2 0 2.5 1 3.8.6a11.7 11.7 0 002.6-1.7c.7.4 1.3 1.1 2 1.3a.7.7 0 00.6-.2.5.5 0 00.5-.1v-.1a1 1 0 01.2 0c.6 1.5.8 3.6 1.8 5-.7-.2-1.5-.8-2.3-1-1.5-.5-4 .5-6 0l-5.3-1.4h-.2a1.5 1.5 0 01-.1-.2c-.7-.5-1.2-1.2-1.8-1.2-2 0-3.6 3.3-5.7 1.6-.6-.5-.8-2-1.4-2.4a6.5 6.5 0 01-2.5 0 3 3 0 00.8-.7 6.3 6.3 0 001.4-.4c.8 1.5 2.4.7 4-.2zm-3-39.8c-.6.8-4 .1-4.3-1 1-.4 4.4-.8 4.4 1zm-9-3c.7.3 1.9.3 2.3.9.3.7-.3 1.6-.5 2.3a5 5 0 01-4-1c.7-.9 1.6-1.3 2.2-2.2zm-5.7 3.4c-1.2 0-3.3 0-4.1-1a2.1 2.1 0 114.1 1zm-7.4 3.7c-.7-.1-1.8 0-2.4-.4a.9.9 0 01-.3-.4 2.5 2.5 0 012.7.8zm-23.8 31.5a20.6 20.6 0 004.6 1.3 2.5 2.5 0 00-.5.7c-1.4-.1-3.4-.4-4.3-1.3a7 7 0 01.2-.7zm-1.9-36.5l.2.5h-.5v-.4l.4-.1zm-8 1.8c1.6.3 2.6-2.4 3.7-.5-.3 1.7-3 1.9-2.8 3.4.1 1 2.7 2 4.2 1.7a6 6 0 001.8-.9 1.6 1.6 0 010 1c-2.2 1-3.5-.7-5.7.4a4.3 4.3 0 01-1.7-.7c-.7-.7-.3-1.7-1-2.3l1.5-2.1zM664 45.6a6.3 6.3 0 00-.4.8 3.1 3.1 0 01-.8 0c-.5-.1-.8-.8-1.4-1-.4 0-1 .4-1.4.3a7 7 0 01-1.1-.4h.2c1.7-.2 3.6-2 5 .3zM660.8 14a4.4 4.4 0 01.4.8 2.6 2.6 0 01-2.4-.8c.4-.5 1.3-.2 2 0zm-7.2 19a1.9 1.9 0 00-.6 0 6.4 6.4 0 00-1.6.8 1.5 1.5 0 01-.7-1c.6-.6 2-.4 2.9.1zm-13.2 19.2c0-.5-.6-.5-.4-1.2.3-.2.8 0 1.3.1-.1.8-.5 1-1 1.1zm8.1-17.7a5.2 5.2 0 00-1-.9 1.4 1.4 0 011.6.8l-.6.1zm-5.2-19.2c1-1.4 2.5-1.9 4-2.4.4.9 1.8 1.1 1.7 2.4-.4 1.1-1.6.3-2.6.5-1.5.3-1.6 1-3.1.4-1.2-.5-3-.3-3.9-1.5.8-.6 2.6.4 3.9.6zM627.8 39a1.5 1.5 0 00-.7 0l-1.3-.3a2.4 2.4 0 00-1-.2 3.2 3.2 0 01-1.2-.5 4.5 4.5 0 014.7-1.8c.6.7 0 2.2-.5 2.8zm3.3-38c-1.7 2.3-6.9 3.5-8.5 0 3 .3 5.6 0 8.4 0zm-13.6 46.5c-.5.4-1.5.1-2-.3.1-.8 2-.5 2 .3zm-7-5.5a4.4 4.4 0 011.2.2 3.8 3.8 0 00-.6 1.2 3.9 3.9 0 01-1.8-1 3.8 3.8 0 011.2-.4zM599 45a1.4 1.4 0 01-1.8-.2c.2-1 1.9-.8 1.8.2zm-6.2 0c.9 0 3.8-.8 3.7 1.1-.8.6-2.9.2-3.8-.5 0-.3-.2-.4 0-.6zm-.8 2.7c2.8.8 7 2.6 9.2 1.6 0-1 .5-1 .5-1.6.1-1.1-1-2-1-2.3.3-1 2-.4 2.8-1.3 1 .8 2.3 1.4 3.3 2.1.1-1.6 3.6-2.7 5.2-2 1.3.5 1.1 2.2 2.3 2.6-1.3-.2-1.1 1.4-2.3 1.9s-3.1-1-3.7.8c.4 1.4 2 .8 2.7 1.4a2.4 2.4 0 01.7 2.6 15 15 0 01-2.8.1c-1 0-1.7-.8-2.6-.8-.8 0-1.5.6-2.3.6l-1.7-.5c-1.6-.2-2.6 0-3.5-1a20 20 0 01-8-.9l-2 1.1a1.7 1.7 0 00-.3-.5 3 3 0 00-.1-1.5c-.3-.4-1.3-.4-2-.7 2.3.1 4.3 0 5.6-1.7zm-21-.5c-.4 1.2-2.6.9-2.6-.4a3 3 0 012.6.4zm-25.9-15.6h-.6l-.6-1a4.4 4.4 0 011.2 1zm-33.9 10a3.3 3.3 0 01-.1-.7l1 .2c-.3.5-.6.9-.9.6zm28 .3a2 2 0 00-.5.6 2.4 2.4 0 01-.3-1.2c.4 0 .7.2.9.6zm-17.6-14.6c2.3 0 7 .2 8.2 2.3-1.4.7-3.5 0-5.5-.3-1.2 1.5-4.2 1.4-2.7-2zm-13.4 1.5c.8-.8 1.7-1.5 2.4-2.4 1.3.8 1.5 2 3.1 1.8.8 0 1-1.2 1.8-1.5 1.7-.7 3.2 0 4.9.5.2 1-.3 2.6 0 3.6-.9.8-2.6.3-4 .4-.6.4-.9 1.5-1.4 2v.3h-.2a2.3 2.3 0 003.2.5c.8 3.3-1.7 7.8 1.5 9.4.5.2 1.2-.1 1.9 0 1.3.2 3 1.6 4.2.6a5.5 5.5 0 000-.7 4.8 4.8 0 00-.3-1.9c-1 .2-2.4 1-3.3.1a2.5 2.5 0 01-.3-2.5c.5-.8 1.2-.2 2-.2a6.5 6.5 0 00.3 1.1c1 .4 2.2-.1 3.4-.3 2.3 1.2 1.6 5 3.1 6.6 1 1.2 2.6 0 3.8 1.1a6.5 6.5 0 014.9-1.3 5.8 5.8 0 01.3 2.6c-1 0-2.7-.4-3.3 1.3l-1-1.4c-.4.2-.3 1.5-1 1 .1-1-.5-1-1-1.5v.3l-.4.1a7.7 7.7 0 00-.3 2c-1-.3-2 .4-3.2.9-.5.8.6 1.7 0 2.5-.9.4-1.6-1.3-2.6-.2a2.5 2.5 0 01-1.7 4c.4 1.7 1.2 4.6-1 5.3l-.5-.7a20.3 20.3 0 00.7-2.5c-1.6-1.7-.8-3.3-1.2-5a.9.9 0 01-1.5-.2 19.2 19.2 0 01-.5-5.4c-1 0-.8 2.6-2.1 1.9-1.2-1.3.7-2.2-.8-3.5-.3.4-.7 1.9-1.4 1.5a13 13 0 01-.3-2.7 19.2 19.2 0 009.3 1.6c-1-2.2-5.8-3.1-9.1-3.3a14.7 14.7 0 01.3-1.7c-1 .3-.1 1.9-1 1.5-.2-.8.3-1.5-.6-2.3-.8-.7-1.7.5-2.4 0-.2-.4 0-.6 0-.9a1.4 1.4 0 00.6-.2c-.3-1.1-1.5-1.6-2.6-2a2 2 0 00-1.3-1.5 6.2 6.2 0 00-.2-2.5c.7 0 1.4-.1 1.6-1.6-1.7-.4-2.2-1.5-2.9-2.6a8.2 8.2 0 00.1-2zm-.4-2.7c-1.3 0-.3-.8 0 0zm-15.2 16.3c.3-.6.6-.1 1 .3a.7.7 0 01-1-.3zm9.8-16.3l-.2.9c-.8 0-.5-1.3.2-.9zm0 4.3c-.8.7-2.4-.2-3.6 0a7.8 7.8 0 01-.4-1.2c1.3-.3 3.6-.4 4 1.1zm-5.3 9c-2.4 3.7-4.8 1.4-6.3-.6 0-.6.9-1.1.4-1.8a8.3 8.3 0 01-6.1-.5c.2-1.6-1.4-3-3-3a30 30 0 001.6-2.8c1.7.3 3.4.9 5 1.4.8 1.4-.4 3 .8 4 .5.5 5.8 1.3 6.5.5.5-1.5-.9-1.8-1.7-2.4.6-1 2.5-.5 4 .1-.2 1.8-1.3 3-1.3 5zM481 22.6c.4 0 .4-.5.9-.2 1 .2.1 1.8 1.2 2 .5-.1 1 0 1.2-.8.1-1-1-1.2-1-2.2 1.2-.2 2-1.1 2.3-3a3 3 0 013-.4.5.5 0 01-.2.3 1.5 1.5 0 00.9.7l.1-.3.3-.1a1.6 1.6 0 000-.2l2 .6c.8-.9 2-1.6 3.4-.5a8.4 8.4 0 00-2.5 5.7c1.2.8 1.4 2.3 2.2 3.4 1 .2 1-1 1.8-1v.3l1.2 4.1a2.1 2.1 0 000 .3c-2 .3-2.8-.7-3.6-2a1.3 1.3 0 01-1.6.7 4.7 4.7 0 00-2.1-2.1c.4-.7 0-2-.5-2-.6.6-.1 1.3.3 2a14.8 14.8 0 00-2-1h-.3c-.3-3-4.2-1.2-2.4 1.2-.5-.1-.9.2-1.4 0-.9-2-3.5-2.8-3.2-5.5zm1.3 7.6a1.4 1.4 0 01-.4 1.3c-.5 0-.8-.7-1-1.4a8 8 0 011.3.1zm-2.9.2a10.4 10.4 0 01.8 3.9l-.2.7h-.3l-1.6-.8a2.4 2.4 0 00.3-.1c.4-1.3-.7-1.6-.8-2.5a3.9 3.9 0 011.8-1.2zM457 67.8l.5.7-.6.6a.9.9 0 01.1-1.3zm-36.7.5a3.8 3.8 0 01-1.2.6l1.4-.8-.2.2zm2.8.4c.3.7 0 1-.1 1.4a5.1 5.1 0 01-2-.4l-.2-1.3c.5.6 1.5.2 2.3.3zm-5.7-3.8l.3.2v.3a7.8 7.8 0 001.8-2.3c1 .7 0 1.3-.3 2 .6 1.5 1.3.3 1.8 1-.7.6-1.5.4-2.3 1.6-.4-.6-.8-1.2-1.2-1.2l-.1.3-.3.1a13.7 13.7 0 01-2.1 1.9c-.7-.6-1.5-1-2.2-1.4l.4-.1-.2-.3v-.4c-.3-.5-.6-.3-.9-.7 1.7-1.4 4.4-3.6 5.3-1zm-31.7-34.7a2 2 0 011.6-.3 4.8 4.8 0 00.4 1.2l-.4.6a4.4 4.4 0 00-1.6-.8v-.7zm-15.2-9.6a3.1 3.1 0 005-.2c1.6.7 4.4-.8 5.6.5.6 0 .6-.6 1.3-.6a16 16 0 002.5 1c-.6 2.2-3.5 1.7-6.4 2.3a15 15 0 01-2.1.5c-.7 0-1.5-1.2-2.2-1.3-1.8-.1-3 1.5-4.7 1.4s-2.7-2.3-4.2-1.4c.5-2 3.1-1.5 5.1-2.2zm-8.9.4a.6.6 0 01.6.5c-.7.4-.8-.1-.6-.5zm-1-1.3c.3.8-1.3 1.2-1.3.3.3-.5.8-.3 1.2-.3zm-11 5.2c-1.4 1.6-5 1.6-6.9 1.5 1-1.5 5.5-2.7 7-1.5zm-9.7 0c-.6 1.4-4.6 2.3-5.9 1.6.7-2 4.3-1.6 5.9-1.7zM329.6 26c-.4.2-.6 0-.8 0-.2-.3 1-.6.8 0zm-2.2-13.2c0 1.8-3.4 1.5-4.3 1.1.2-1.1 3.7-1.8 4.3-1zm-7.3-.2c.2.7.9 1.7.5 2.4-.4.5-1.5.5-2.3.8-.6-1-1.5-1.3-2.1-2.2a5.1 5.1 0 014-1zm-7.5-.1a2.1 2.1 0 11-4 1c.7-1 2.8-1 4-1zm-5.3 10.7c1.1-1.3 4.3 0 5.5 0 1 0 1.7-.4 2.3-.3s1.1.7 1.8.9c1.5.2 3.2-.5 4.5-.3 1.2.3 2.2 1.8 4.1 1-1 2.7-5 .5-6.5 2.5-.6-.3-1-1-1.7-1.3-1.6 1.1-3.3 0-5.2-.3-2.2-.3-4.4.9-5.2-1.8.2 0 .2-.3.4-.3zm-2-14.5a2.5 2.5 0 01-2.7 1c.2-1 1.8-.8 2.6-1zm0 15.5c-.6.8-1.5.2-1.8-.4-1.1 0-2.3.3-3.1-.2.4-2.8 4-.7 4.8.6zm-25.7-10.4c-.2 0-.2-.2-.4-.1v-.5c.2 0 .3.2.5.1l-.1.5zm11-7a3.1 3.1 0 01-5.1 1.5c.5-1.6 3.7-1.9 5-1.5zm-19.6.8c1.5-1.3 5-1 7-2a4 4 0 005.1.5c.8.4 1.7 2 2 2.3-.3.4-1.2.4-1.8.6-.4-.6-.8-1.3-1.5-1.4-1 .2-1 .7-1.9 1-1.4.2-2.2-1-3.4-1.3-1.5-.2-4 .7-4.1 1.7-.2 1.6 2.5 1.7 2.7 3.4-1 2-2-.8-3.6-.5l-1.5-2c.7-.7.3-1.7 1-2.3zm-2-1.5c.6.1.8.3.7 1-.6.2-1 0-1-.7.3 0 .4-.1.4-.3zm-33-1.2c1.5-.6 1.6 0 3 .3 1 .3 2.2-.5 2.7.5.1 1.3-1.3 1.6-1.8 2.5-1.5-.6-3-1-4-2.4-1.3.2-3 1.2-3.8.5.8-1.1 2.7-1 3.8-1.4zM223.7 20c-2.9.1-5.4-.3-8.5 0 1.7-3.4 6.8-2.2 8.5 0zm-25.2 26.5c.4 0 .5.5.3.8-.4 0-.5-.4-.3-.8zm-36.3 19.2l-.1-.5h.4v.4zm-13.5-25.2c-.4.3-1.2.6-1.4-.1.2-.4 1.4-.8 1.4 0zM129.7 54a2 2 0 011.8-1.1c2-3.6 5.5-.3 7.7 1 0 .9-.8 1.1-.6 2.1 1 2 3.8 0 4.5-1a7.4 7.4 0 004.2 2.3c1 1.4 2 2.6 3.8 2.4 1-.6 0-1.7-.2-2.8 1.2-1.7 4-1.7 6-2 .7 1.4 2.4 1.3 4 1 .7 1.7 2.2 2 4 1.7a6.8 6.8 0 011.5 1.7c3.9-.5 9.3-.8 8.5 5-1.7.3-3-1.6-4.6-2-.8-.2-1.7.4-2.4.2-1.6-.4-2.7-2-5-2.1a8.4 8.4 0 00-5.3 1.3c-1.6-1.1-3.6-4.4-5.5-1.6 1.4 1 2.3 3 5 1.7a2.8 2.8 0 002.2 2.4c-2.3 3.3-5.5-.4-7.7-.3-.5 0-.9.6-1.3.5-1.6-.3-2.2-2.6-3.8-3.3-.8-.3-1.8.1-2.5 0s-1-1-1.7-1.2c-2-.6-4-.2-6-.7a7.8 7.8 0 00-5.8-2.8c-.3-.9-1-1.6-.8-2.4zM121 36.9c.5-.2.6.3.8.7-.3.5-.5.1-1 .2-.3-.5.3-.5.2-1zM106 62a1.5 1.5 0 010 1.1 1 1 0 01-1.2-.8 1 1 0 011.2-.3zm-2 9.7c.7.1.7.6.5 1.3-.6.1-.8-1-.5-1.3zM87.9 49.6c-.1.4-.6.7-1 .5 0-.8.5-.5 1-.5zm-2.1-1c-.7 1.3-4.2 1.7-5 .7.8-.7 4.3-2.2 5-.8zm-26-5.5c-.1 1.5-2.6 2.1-3 .5.4-.7 2.5-1.4 3-.5zm-3.5-.9l.1.8c-.6.3-.9 0-1-.6zm-26.6-17a1 1 0 01-1.2-.8c.3-.7.8-.6 1.4-.4.1.6-.2.8-.2 1.3zm4 6c0-3-3.5-2.5-2.6-5.2 3-.2 5.5 2.3 5.4 6.5-1-.3-1.5-1.5-2.8-1.3zm15.4-.2c0-.6.7-.7 1-.5 0 .7-.5.4-1 .5zM37.5 20.9c.2-.8-.9-1.4-1.3-2 2-2.7 7.8-2.6 11-3 0 1-.7 1.5-.2 2.8 1.8 1.4 3-1 3.5-2.2.7 1.3 1.8 1.9 2 4-.6 1-2.8.9-3.3 2a4.7 4.7 0 010 3 7 7 0 01-4.9-.5c-3-1.4-6-6.7-6.3-.9-1-.6-2.3-.6-3.3-1 .2-1.2 2.4-1.1 2.8-2.3z"/>
  <path d="M635 2a25.8 25.8 0 008.3-1.3 4.2 4.2 0 010-.7h-9.5a6.2 6.2 0 011.2 2z"/>
</svg>