<svg xmlns="http://www.w3.org/2000/svg" viewBox="0 0 792.5 224.6"><g id="Layer_2" data-name="Layer 2"><g id="Layer_1-2" data-name="Layer 1"><path class="cls-1" fill="#050505" d="M310.9 123.2c-.4 4.6.7 9.3-.5 14a10.7 10.7 0 01-4.3 6.1l-24.8 18c-2.2 1.6-4.2 1.6-6.3-.3a79.8 79.8 0 00-26-15.1c-1.5-.6-3.2-.2-4.9-1-3.1-1.3-3.7-3-1.1-5.4a31.6 31.6 0 014.9-3.8c3.7-2.4 5.8-5.6 5.8-10l-.1-14.6c0-1.5-1.2-2-2-2.8s-2.8-1-2.1-2.6a4.2 4.2 0 014.1-2.7 34.2 34.2 0 009-.8 33 33 0 006.4-2.2c1-.4 2.4-.8 2.1-2.1a3.8 3.8 0 00-2.2-2.7c-5.4-2.5-11-4-17-2.7a6.9 6.9 0 01-4 0c-2.3-.9-2.9-2.7-1-4.2 3.6-3.2 7.4-6.1 11.3-9.1 1.4-1.2 3.1-1 4.8-.9 13 .5 25.2 5 37.4 8.8 6.9 2.1 8 7.2 8.8 13 1 7.6 2.5 15.3 1.7 23zm-41 .9a10.5 10.5 0 01-5 4.8c-1 .5-2.7 1.3-2.4 3 .5 2.7 3.3 2.8 5.2 3.7a2.2 2.2 0 003.3-1.4c.4 0 .4-.3.4-.6V111c0-.7 0-1.6-1.1-2-1.8 5.1 0 10.1-.3 15zm6-4.8h.5v17a5 5 0 002 4.4 42.1 42.1 0 0010.2 5.5c2.1.7 4.1-.4 4.3-2.6.5-6 .3-12 .5-18 0-5.7-1-11.3-1.5-17a9.4 9.4 0 00-6.2-8l-4.8-1.3c-3.7-1.1-4.8-.5-4.9 3.4v16.6zM402.2 126.4c-.2 3.3.6 9.5 1.7 15.6.2 1.5 1.5 2.4 2.3 3.5 1.6 2.1 1.9 3.8-.3 6.1-7 7.4-6.9 7.5-14.4.8-2.4-2-3.4-4-2.3-7.3 2.8-7.8 2-16 1.6-24.2-.1-4-2.6-6-7-6.2-6-.4-6-.4-6 5.6 0 6.7 1 13.4.8 20.2a7.5 7.5 0 002.6 5.5c1.8 1.8 1.6 3.4-.4 5s-4.3 2.9-6.2 4.5a3.6 3.6 0 01-4.9.1c-1.4-1-2.7-2.2-4.1-3.4a4.9 4.9 0 01-1.4-6.2 43.1 43.1 0 002-21.9c0-.6-.3-1.1-.3-1.7 0-3.5-1-6.5-4.1-8.4-2.2-1.4-2-3-.4-4.7a44 44 0 019-7.6 3.2 3.2 0 013.6-.1 10.3 10.3 0 014.5 4.5c1.4 3 3 2.6 5 .9 1.5-1.4 3.2-2.7 4.8-4 3.6-2.9 6-3 9.8-.1a46.8 46.8 0 015.3 4.7c1.9 1.9 3.4 1.7 5 0l4.1-4.4c2.5-2.6 4.7-3.1 8-1.5l9 4.5c2 1 2.5 2.6 1.2 4.4-2.8 4-3.6 8.5-3.5 13.2 0 4.1.1 8.2 0 12.3a9.2 9.2 0 003.8 8.5c1.8 1.3 2 2.5.8 4.2-1.7 2.2-3.2 4.6-5 6.7-2.4 2.8-4.8 3-7.7.6l-3.3-3c-3.3-2.6-4.6-5.6-2-9.4a4.2 4.2 0 00.5-2.3c0-6.9.7-13.7 1-20.6.3-3.5-1.1-5-4.8-5.2-7.5-.5-7.5-.5-8.3 10.8z"/><path d="M480.1 145c-3.2-2.5-3.7-5.8-3.4-9.5l-.2-4.5c.3-7-.4-14.1 2.2-20.9 1.2-3.1.6-4.5-2.6-5.4-2.2-.6-4.6-.8-6.3-2.3-2.3-2-4.1-1-6.1.3-2.4 1.7-5 3.3-7.3 5-2 1.5-3.4 1.5-4.6-1-1.6-3.5-5-4.9-8.3-5.5-2.6-.5-3.9 2.3-5.4 4.1-.8.9-1.4 2-2.3 2.8-2 1.9-2 3.6.3 5.3a7.9 7.9 0 013.2 6.2c.2 8.3 0 16.7-1.7 24.8-1.5 6.7-1.7 6.7 4 10.8l2.4 1.8a2.6 2.6 0 004.1-.3l6-6.7c1.2-1.6 1.5-3.3 0-5.1a11.6 11.6 0 01-2.3-7.5v-20c0-1.5.2-2.8 2.1-3 6.5-.6 9.8 2.2 10 8.6.1 4.7 0 9.4.2 14a16.9 16.9 0 01-1.1 7.3 6.4 6.4 0 00.7 6.5 15.6 15.6 0 001.9 2.4 5.3 5.3 0 012.1 1.9 2.4 2.4 0 01.3.2v.2a6.4 6.4 0 01.7 2.7 36 36 0 010 5.5 9.9 9.9 0 01-1.4 3 1.6 1.6 0 01-.4.3l-.4 1-.3.5s-.3.6 0 .2a2.4 2.4 0 00-.3.5v1a5.8 5.8 0 006.2 4.4 6.3 6.3 0 004.1-2 1.3 1.3 0 010-.3l.2-.4a1.9 1.9 0 01.2-.8 2 2 0 01.1-.5v-1.1a12.6 12.6 0 00-.6-1.7l-.1-.2-.2-.3a5.7 5.7 0 00-.3-.6c-.1-.1-.1-.1 0 0l-.2-.2-.3-.4a9.7 9.7 0 01-.9-1c-.5-.7-.7-5-.7-6 0-1.5 1.1-2.7 2.2-3.7l.1-.2.5-.5a5.3 5.3 0 011.8-1.7 34.3 34.3 0 002.4-2.7c1.4-1.8 1.6-3.8-.3-5.3z" fill="#b5170d"/><path fill="#050505" class="cls-1" d="M315 148.1c3-7.7 1.9-15.7 2.1-23.6a32.7 32.7 0 00-1.3-9.7 3.3 3.3 0 011.5-4l15.9-11a2.4 2.4 0 013-.1c5.3 3 10.8 5.5 17.1 6 2.2.3 2.5 2.4 1.6 3.7-3.8 5.7-2.3 12-2.2 18 0 3.6.5 7.2.5 10.8a7.1 7.1 0 002.7 6c2 1.6 2.2 3.2.4 5.1-1.7 1.7-3.2 3.6-5 5.2-2.2 2.3-4 2.2-6.2-.2l-.7-.9c-2.6-2.8-5.3-3.4-8-1-5 4.2-9.8 5.2-15.3 1.6a22.3 22.3 0 00-3.5-1.6 3.8 3.8 0 01-2.6-4.3zm14-21.3v10.4c.1 5.3 2.9 7.9 8.2 8 2.4 0 3.3-1 3.5-3.3a178.2 178.2 0 00.8-23.8 3.3 3.3 0 00-2.1-3.3 35.4 35.4 0 00-6.2-2c-3.3-.6-4.2.2-4.2 3.5v10.5zM109 123.8a114.3 114.3 0 00.6 14.5c.3 2.9.9 3.3 3.7 2.7 1-.2 2-1.2 3 .1s0 2.2-.5 3.2c-2.5 5.5-7.6 8.7-12 12.5-1.6 1.3-3 0-4.2-1a42.1 42.1 0 00-15.2-8.4 21.3 21.3 0 00-3.2-.5c-3.1-.5-4.2-2.6-2.6-5.4a20 20 0 012.9-3.7c4.2-4.4 5.4-9.6 4.7-15.6-1-8.2-1-16.6-2.5-24.6-1.3-7 1-11 6.6-14.5a37.3 37.3 0 009.1-8.5c3-3.5 5.7-4.2 10-2.6 6.4 2.4 12.8 4.7 19 7.3 3.3 1.4 6 1 8.4-1.5a6.3 6.3 0 01.7-.6c1.1-.8 2.3-2.8 3.7-1.6 1 .8.5 3 0 4.4A9.4 9.4 0 01138 84c-4.9 3.7-10 7-15.1 10.4-1.2.8-2.4 1.5-2 3.3s2 1 3 1.2l13.9 1.6c2.5.3 3.2 1.3 2.1 3.4-3 5.8-3.3 12-2.7 18.3.9 10.6 1.5 21.3-.4 31.8a30 30 0 01-22.6 24.7c-1 .3-2.9 1-3.4-.7a4.7 4.7 0 011.6-5c1.5-1.5 3.6-1.4 5.5-2 4.2-1.5 5.2-2.4 5.3-6.7.3-13.2-.5-26.3-.8-39.4v-2.1c-.1-8.5-1.8-10.5-10.3-12-2.3-.4-3 1.1-3 3-.2 3.3-.1 6.5-.1 10zm-4.2 3.7h.2v-6.6a25.6 25.6 0 00-.7-5.6 1.3 1.3 0 00-1.5-1.2c-.6 0-.6.7-.6 1.1.1 6.8-2.7 12.3-7 17.2-1.4 1.8-.7 3 1 3.7s4 1.3 6 1.8c1.5.4 2.5.1 2.5-1.8v-8.6zm-3.1-22.6a2.8 2.8 0 002-2.1c1.4-4.7.5-9.5.6-14.2a1.5 1.5 0 00-1.5-1.5c-1.2 0-1.6.8-1.6 1.8a153.3 153.3 0 00.5 16zm8.5-6.8c2-.1 5.7-3.2 5.6-4.4-.1-1-3.8-3-5.1-2.9a2.6 2.6 0 00-2.5 3c.3 1.5.2 3.7 2 4.3zM162 97.8l5.6 1.8 13 4.9c2 .7 2.6 2 1.8 4-3.3 8.1-1.5 16.6-1.2 25a39.5 39.5 0 001.3 6 3.4 3.4 0 01-1.3 3.8l-15.7 11.2a3.5 3.5 0 01-3.8 0q-7.7-3.7-15.6-7.2c-2-.9-2.8-2-1.8-4.4a21 21 0 001.4-8.4c-.2-7.7 0-15.4 0-23a7 7 0 013.5-6.7l10-5.8a21.3 21.3 0 012.9-1.2zm-4.6 26.8h.1a36.1 36.1 0 010 4.8c-.9 6.5 2 10.3 8 12.4 3.5 1.2 3.6 1.4 4.1-2.2 1.1-7.2-.3-14.4-1-21.6-.4-4.8-1.6-5.4-6.7-5.7a9.4 9.4 0 01-1.2-.1c-2.3-.5-3.3.6-3.3 2.9v9.5zM189.8 126v-10.8c0-2-.5-3.5-3-3.8s-3-1.7-1.3-3.7a17 17 0 004.4-12.3 4.2 4.2 0 011.8-3.8c3-2 5.8-4 8.7-6.2 1-.8 2.2-1.1 3.3-.4.9.6.8 1.6.6 2.8-.3 3.2-.2 6.4-.3 9.6 0 2.2 1 3.1 3.3 3.2 3.6 0 4 .5 3.7 4.3v3.2c0 2.3-1 3.4-3.4 3.7-4 .4-4.2.9-4.3 4.9-.1 5.5-.2 11.1-.5 16.7a31.6 31.6 0 00.7 6.4c.2 1.5 2.2 2 3.4 2.9 3 2.2 3.3 3.3.9 6.1l-5 5.2a4.3 4.3 0 01-5.5.9l-11-5c-1.6-.8-2.2-1.8-.8-3.2 3.4-3.4 4-7.6 4-12V126zM549.4 127.6v27.2a2 2 0 01-1.8 1.7c-.6 0-1-1-1-1.9 0-4.6-.3-9.1-.4-13.7l-.6-38.5c0-4.9-1-5.9-5.7-6.6l-2.3-.5c-5.5-.8-6.6.6-5 6a59 59 0 012.5 11c.9 9.2-2.2 16.9-8.3 23.6l-3.7 4.3c-2 2.7-1.6 4.5 1.7 5.7a48.5 48.5 0 009.5 2c.7.1 1.4 0 2.1.2 2.6.6 3.1 2 1.3 3.9l-10.3 10.4a3.8 3.8 0 01-4.8.8c-4.5-2.5-9.4-4.1-14-6.2-2.9-1.3-2.5-2.3-.8-4 3.3-3.4 6.8-6.7 9.1-11 4.8-8.9 4.5-18 1.3-27.2a104.7 104.7 0 00-7-15.3c-2-3.7-1.8-7 1-10.4a45 45 0 0113-12.5c.8-.4 1.7-1.4 2.6-.6s-.2 1.6-.6 2.4c-1.7 3.3-.5 9.6 2.3 12 1.3 1 2.6.5 3.8-.4 3.4-2.6 6.9-5 10.2-7.8a9.3 9.3 0 0110.2-1.4 45.2 45.2 0 0020.4 4.4c2.8-.2 3.8 1.6 2.5 4.2a28 28 0 01-2.1 3.6c-3.9 5.5-4.1 12-4.7 18.2a210 210 0 00-.1 26.5 11.7 11.7 0 005.8 10c3.9 2.4 4 3.7.7 6.7l-7.3 6.6a4.3 4.3 0 01-6 .5c-4.2-3-6.6-7.2-9.4-11.1a2.6 2.6 0 01-.1-2.6c2.5-4.8 1.5-10 1.2-15L554 120a29.3 29.3 0 014.3-17c2.6-4 1.8-5.2-2.9-5.2-6.3 0-6.3 0-6.3 6.4v23.3zM600 103.8c1.2-.2 2 .5 2.8 1 4.4 2.2 8.8 4.5 13.9 4.8 3.6.2 4.7 2.2 3 5.4a17 17 0 00-1.7 8.6c.3 6 .3 12 .4 18 0 2.8.7 5.3 3.2 7.2 1.8 1.4 1.7 3 .2 4.6l-5.7 6c-1.7 1.6-3.4 1.6-5-.1l-1.2-1.4c-3.1-3.5-4.7-3.7-8.6-1l-4 2.7a5.9 5.9 0 01-5.6.8 60.6 60.6 0 01-9.5-4c-2-1.3-2.7-2.8-1.5-5a14.5 14.5 0 001.5-7.2v-20.3a5 5 0 00-.1-2c-2.3-4.7.4-6.9 3.9-9 3.9-2.6 7.6-5.4 11.4-8 .8-.6 1.6-1.3 2.7-1zm.2 20.1a1.3 1.3 0 01.1-1.6c2.9-4 2.8-4.1-2.3-4.9a8.7 8.7 0 01-.9-.1c-2.3-.6-3.2.6-3 2.7.4 7.6.5 15.2.6 23 0 4 2.9 6.4 7 6.7 3.1.3 4.6-.9 4.7-4.1l.2-13.5v-9.8c0-1.4-.4-2.4-2-1a48.1 48.1 0 01-4.4 2.6zM703.6 96.5c4.4 0 8.3 5.4 7.7 10.3a18.2 18.2 0 01-6.4 11.7c-2.4 2.2-2.3 4.1-.6 6.7a36.3 36.3 0 016.6 18.7 5.8 5.8 0 01-1.6 4.3l-13 14c-1.4 1.4-3.4 2-4.7.4-3.4-4.7-8.6-6-13.6-7.7l-5-2c-2.7-1.2-3.2-3.1-1.2-5.4l4.5-5a6.2 6.2 0 00.5-7.5c-1.1-2-2.5-4-3.5-6.2-1.2-2.7-1.2-5.2 1-7.6a148.3 148.3 0 0117.2-15.5 3.2 3.2 0 014.3-.2 28.7 28.7 0 006.6 3.4c2.8 1 4.9.4 5.7-1.9.9-2.7-1.4-3.5-3.2-4.5-.8-.5-2-.6-2.7-1.1-1-.7-2.4-1.5-1.9-3a3 3 0 013.3-2zm-3.4 49.5c0-3.1-5.4-10.5-8.3-11.3a2.1 2.1 0 00-2 .2 22.2 22.2 0 00-4.7 4c-1.4 1.8-1 3.3.9 4.2 3.8 1.7 7.8 3.2 11.7 4.7 1.6.7 2.6 0 2.4-1.8zm-13-27.6c-1-.3-1.7.5-2.3 1.3s0 1.5.5 2.1c.8.9 1.5 1.8 2.4 2.6 2.9 2.8 4.8 2.3 6.7-1.3 1-2 .2-3-1.3-3.5a43.4 43.4 0 00-6-1.1zM666 83c1.3 0 1.3 1.3.7 2-5 7-4 15.2-4.3 23-.4 12-.1 23.9-.2 35.8 0 2.5 1.2 3.8 3.2 4.9 4.5 2.3 4.6 3.7.8 7l-3.4 2.9c-4.9 4-3 3.4-8.6.8a16.8 16.8 0 01-5-3.8c-2-2-3-4.2-1.3-7a13 13 0 001.5-6c1-15.2 1.3-30.3.9-45.4-.2-3.9.9-6.7 4.4-8.6 2.2-1.3 4.2-3 6.3-4.4a6.6 6.6 0 015-1.3zM641.7 113.6c-2 8.6-.7 18.2-1 27.7a7.7 7.7 0 002.8 6.8c2 1.6 2.1 3.3.3 5.2s-3.3 3.7-4.8 5.7c-1.3 1.6-2.6 1.6-4 .4l-7.2-5.7c-1.6-1.2-2.2-2.5-.8-4.5a12.3 12.3 0 002-6.7c.3-7 .1-14 0-20.9a6.7 6.7 0 00-1.9-4.8c-1.9-2-1.7-4 0-6a15.5 15.5 0 017.7-4.8c3.5-1 7 2.4 6.9 7.6zM34.6 72l-1.2-1c.9.1.2 1.3 1.2 1zM631.8 191.8c2.5.6 3.9 2.9 6 4.1.7.5 1.2 1.6 2.3 1s1-1.6 1-2.6a32.7 32.7 0 01.7-7.1c.1-.7 0-1.5 1-1.5s.8 1 .9 1.6c.2 2.7.6 5.4.7 8 .2 1.7.6 2.4 2.1 1.1l1-.6c.6-.6 1.3-1.4 2-.8 1 .8-.3 1.4-.6 2-1.4 2-1.3 3 1.4 2.9 3.5-.2 6.9.8 10.4.9.5 0 1.5-.6 1.6.6a1.5 1.5 0 01-1.3 1.7 38.3 38.3 0 01-5.4.6l-5.3-.3c-.7 0-1.8-.5-2.1.5s.7 1.3 1.2 1.8l5.5 5c.5.4 1.6 1 .8 1.9s-1.4.2-2-.3l-7.2-5.9c-1.5-1.3-2-.8-2 1a87.2 87.2 0 000 13v1.8c0 .9.2 2.2-.9 2.3-1.2.1-1.3-1.3-1.3-2.2.2-5-1-10-1.2-15.2 0-.7.4-1.6-.6-2s-1.5.4-2 1l-5 5.1c-.5.5-1 .5-1.7.2 1.7-2.3 3.2-4.4 5-6.4 1-1.3.6-1.7-.8-1.9l-6.8-1a4.4 4.4 0 01-3.2-1.6c2-1.3 4-.6 6-.7s4.3.9 5-.4c.6-1.6-2-2.9-3-4.4-.6-1.1-2-1.8-2.2-3.3zM779 113.3c1.7 1.6 1.6 3.3 1.6 5.1-.1 5.9 1.3 7.3 7 8 1.6.2 3.3.3 4.9 2.4h-9.2c-2 0-2.8.6-2.7 2.7V145c0 .8.2 1.7-1 1.7s-1.6-.5-1.6-1.6c.1-4.8-.6-9.5-1-14.3 0-1.7-.6-2.3-2.3-2.1s-3.4 0-5 0c-1 0-2.1.3-2.6-1.3 2-1.6 4.8-.9 7.2-1.7 1.9-.6 2.8-1.5 3-3.4.5-3 .4-6 1.7-9zM730.6 170.3l1 10c.2 2.5 1.3 3.4 3.6 3.2a12.5 12.5 0 011.5 0c.7 0 1.8-.3 1.8.9s-1 1-1.9 1c-3.7.3-4.8 1.3-5 5.2v7.4c0 .6.3 1.4-.5 1.4s-.8-.6-.9-1.3c-.2-3-.7-6-.7-8.9 0-2.6-1-3.4-3.4-3.1H724c-.5 0-1 0-1-.7s.2-.9.8-1c.3 0 .6-.2.8-.3 4.7-1.3 4.7-1.3 4.9-6.2a26.8 26.8 0 011-7.6zM691.6 187.7c0 3-.9 4.2-3 4.2a2.9 2.9 0 01-2.9-3c0-1.5.8-3.1 2.6-3 1.7.1 3.2.7 3.3 1.8zM739.4 134.4a2.4 2.4 0 012.1 2.4 2.3 2.3 0 01-2.3 2.5c-1.6.2-2.3-.7-2.4-2.2-.1-2 1.5-2 2.6-2.7zM603.1 191.8l-1.2-1.1c.8.1.2 1.3 1.2 1zM162.4 33.1c-2.5-.7-3.8-3-5.9-4.3-.7-.5-1.2-1.6-2.2-1.1s-1 1.6-1.1 2.6a34 34 0 01-1 7c-.1.8-.1 1.6-1.1 1.5s-.7-1-.7-1.6l-.6-8c0-1.7-.5-2.4-2-1.2l-1 .7c-.7.5-1.4 1.3-2 .7-1-.8.3-1.4.6-2 1.5-1.8 1.4-3-1.3-3-3.5.2-6.8-1-10.3-1.1-.6 0-1.5.5-1.6-.7a1.5 1.5 0 011.4-1.7 38 38 0 015.3-.4c1.8 0 3.6.3 5.3.4.8 0 1.8.6 2.1-.3s-.6-1.4-1.2-1.9l-5.3-5.2c-.5-.5-1.5-1-.7-1.9s1.4-.2 2 .4l7 6c1.5 1.3 2 .8 2.2-.9a85.8 85.8 0 00.3-13.1 17.8 17.8 0 010-1.8c0-.9-.2-2.2.9-2.2 1.2 0 1.3 1.3 1.2 2.2-.3 5 .8 10.1.8 15.2 0 .7-.4 1.7.6 2s1.4-.3 2-.9l5-5c.6-.5 1-.4 1.8 0l-5 6.2c-1 1.2-.8 1.7.6 1.9 2.2.4 4.5.7 6.7 1.2a4.4 4.4 0 013.2 1.7c-2 1.2-4 .4-6 .5s-4.3-1-5 .3c-.7 1.5 1.8 2.9 2.8 4.4.7 1.2 2 2 2.2 3.4zM13 107.3c-1.6-1.5-1.4-3.3-1.4-5.1.3-5.8-1-7.3-6.8-8.2-1.6-.2-3.3-.4-4.8-2.5 3.4 0 6.3 0 9.2.3 2 .1 2.8-.5 2.8-2.7l.3-13.4c0-.8-.1-1.7 1-1.7s1.6.5 1.5 1.7c-.2 4.8.4 9.5.6 14.3.1 1.6.6 2.3 2.3 2.2s3.3 0 5 .1c1 0 2.1-.3 2.5 1.3-2 1.6-4.8.8-7.2 1.5-1.9.6-2.8 1.4-3.1 3.4-.5 2.9-.5 5.9-1.8 8.8zM63 51.8l-.6-10.1c-.2-2.5-1.3-3.4-3.6-3.3h-1.5c-.7 0-1.8.3-1.8-.9s1.1-.9 2-1c3.7 0 4.8-1.1 5-5l.3-7.4c0-.5-.2-1.3.6-1.4s.8.7.8 1.4c.1 3 .6 6 .5 8.9-.1 2.6 1 3.4 3.3 3.2h2c.6 0 1 0 1.1.7s-.3 1-.9 1c-.3 0-.5.2-.8.3-4.8 1.1-4.8 1.1-5 6a26.7 26.7 0 01-1.4 7.6zM102.5 35.5c0-3 1-4.2 3-4.2a2.9 2.9 0 012.9 3.2c0 1.5-.9 3-2.7 3-1.6-.2-3.1-1-3.2-2zM53.2 87.4a2.4 2.4 0 01-2-2.5 2.3 2.3 0 012.4-2.4c1.6 0 2.2.7 2.3 2.3.1 2-1.6 2-2.7 2.6z"/></g></g></svg>