<svg xmlns="http://www.w3.org/2000/svg" viewBox="0 0 457.78 392.69"><path d="M139.7,155.26c-3.08-.15-5.76,0-8.62,2.2-4.06,3.16-9.38,4.33-14.24,6.15-3.61,1.36-7.32,2.46-11,3.7-2.57.87-5-.65-5-3.31s-1.26-4.72-2.31-6.94c-3.88-8.17-7.81-16.32-11.11-24.75-.91-2.32-.21-4,1-5.73a6.2,6.2,0,0,1,1.93-1.92c4.33-2.32,3.66-6.11,3.09-9.93-.72-4.72-2.93-8.9-4.64-13.26-2-5.2-4.27-10.32-6.31-15.52-1.71-4.38-.86-6.81,3.2-9.07a34.21,34.21,0,0,1,5.64-2.5c3.27-1.1,6.09.4,7.71,4.05a100.51,100.51,0,0,1,4.5,13.86c1.2,4.29,2.24,8.62,3.46,12.91a7.24,7.24,0,0,0,2.41,3.93,7.6,7.6,0,0,1,2.81,5.6c.07,1.09.18,1.93,1.7,1.77,1.17-.12,1.8-.32,1.8-1.7,0-3.69,2.12-6.31,5.49-6.63,6.61-.63,7.45-5.61,8.49-10.31,1.4-6.35,1.19-12.89,1.51-19.35.18-3.59.53-7.14.95-10.69.33-2.74,2.13-4.27,5-4.68a24.16,24.16,0,0,1,6.95-.06c4.44.66,6.47,2.93,6.06,7.42a166.68,166.68,0,0,1-3.3,20.34c-.62,2.83-1.05,5.71-1.59,8.56-.16.82.31,1.43.56,2.12a8.56,8.56,0,0,1,.26,6.45c-.54,1.35-.59,2.71,1.83,3.25,4.85,1.08,6.43,4,6,8.92-.44,5.47-.6,11-1.06,16.43-.34,4-.85,8.09-1.51,12.09s-3.36,6.33-7.48,6.58C142.53,155.33,141.12,155.26,139.7,155.26Zm10.53-33.93c.41-2.2-.83-3.6-2.43-4.74a24.82,24.82,0,0,0-2.92-1.68c-6.6-3.53-13.7-3.19-20.79-2.49-1.1.11-3,0-3.16,2.1-1.6.82-1.36,1.75,0,2.47a7.61,7.61,0,0,1,3.43,4.36c2.48,6.37,5.17,12.66,7.54,19.07,1.2,3.24,3,6.43,3,9.92,0,2.48,1,2.92,3,3a7.62,7.62,0,0,0,3.83-.82,5.8,5.8,0,0,1,3.3-1c1.77.22,2.49-1,2.68-2.3a56.4,56.4,0,0,0,.91-6.12,56.37,56.37,0,0,1,1.11-9.05A33.91,33.91,0,0,0,150.23,121.33Zm-16.5-30.07c-.06,1.24-.17,2.49-.17,3.74,0,5.4-1.33,4.76,4.95,5,2.15.09,2.7-.87,3-2.65.33-2,.82-4,1.27-6,1.33-6,3.72-11.67,3.52-17.93-.14-4.35-3.37-6.13-6.46-6.62-1-.17-1.51.2-1.92,1.33A76.58,76.58,0,0,0,133.73,91.26Zm-46.5-8.33c0,.16,0,.75.15,1.32a88.44,88.44,0,0,0,7.39,23c2.57,5.27,2.46,5.28,7.77,2.91,1.08-.49,1.2-.93.9-2.07-1.11-4.22-2-8.5-2.76-12.81a44.81,44.81,0,0,0-2.9-10.72,8.35,8.35,0,0,0-4.93-4.92C90.23,78.72,87.15,80.31,87.23,82.93Zm49.65,26.55v-.12a13.28,13.28,0,0,0,3,0c1.18-.28,2.41-.76,2.52-2.31.06-1,.42-2.21-.71-2.6-2.33-.79-4.69-1.74-7.19-1.61s-2.95,2.33-3.36,4.26c-.48,2.18,1.54,1.73,2.58,2.09A13.93,13.93,0,0,0,136.88,109.48ZM96.76,117c.72,1,.13,3.51,1.75,3.2,2.9-.56,5.92-1.51,7.87-4.18.77-1.06.34-2-.09-3s-1.42-.9-2.15-.73a36.65,36.65,0,0,0-5.67,1.69C97.36,114.37,97,115.64,96.76,117Z" style="fill:#050505"/><path d="M205.51,133.48a94.83,94.83,0,0,0,.53,12.08c.24,2.45.71,2.77,3.07,2.27.75-.16,1.62-1,2.47.11s0,1.83-.4,2.65c-2.15,4.62-6.35,7.32-10.06,10.44-1.35,1.14-2.49.08-3.49-.79a35.08,35.08,0,0,0-12.7-7,18.3,18.3,0,0,0-2.68-.46c-2.61-.39-3.54-2.15-2.21-4.45a15.94,15.94,0,0,1,2.42-3.14c3.55-3.68,4.58-8,3.95-13-.85-6.84-.76-13.82-2-20.56-1.11-5.8.79-9.18,5.51-12.09a31.14,31.14,0,0,0,7.61-7.08c2.44-3,4.7-3.53,8.36-2.17,5.32,2,10.66,3.93,15.92,6.08,2.72,1.11,5,.85,7-1.23a6.57,6.57,0,0,1,.54-.52c.95-.72,1.95-2.32,3.08-1.4.89.73.47,2.5,0,3.73a7.94,7.94,0,0,1-2.66,3.21c-4,3.15-8.4,5.87-12.64,8.73-1,.67-2,1.28-1.64,2.73s1.64.91,2.49,1c3.87.53,7.75,1,11.63,1.37,2.09.22,2.7,1,1.8,2.8-2.48,4.85-2.73,10-2.28,15.28.76,8.88,1.25,17.82-.34,26.6-1.94,10.68-8.34,17.39-18.91,20.65-.86.26-2.34.82-2.83-.59a4,4,0,0,1,1.33-4.24c1.29-1.22,3.07-1.12,4.61-1.64,3.55-1.21,4.34-2,4.44-5.58.3-11-.4-21.95-.63-32.93,0-.58,0-1.16,0-1.74-.14-7.13-1.53-8.75-8.59-10-2-.34-2.52.92-2.57,2.48C205.45,127.78,205.51,130.45,205.51,133.48ZM202,136.56h.25c0-1.83-.06-3.65,0-5.48a21.41,21.41,0,0,0-.61-4.66,1.13,1.13,0,0,0-1.2-1c-.53,0-.54.54-.53,1,.1,5.6-2.27,10.21-5.78,14.36-1.23,1.45-.61,2.48.88,3.06s3.29,1.05,4.95,1.51c1.26.35,2.09.12,2-1.5C201.91,141.37,202,139,202,136.56Zm-2.56-18.84a2.32,2.32,0,0,0,1.65-1.81c1.2-3.9.43-7.88.52-11.83a1.23,1.23,0,0,0-1.31-1.23c-1,0-1.29.65-1.28,1.49A127.5,127.5,0,0,0,199.41,117.72Zm7.1-5.74c1.74-.09,4.74-2.64,4.66-3.67-.07-.76-3.14-2.5-4.27-2.39a2.12,2.12,0,0,0-2,2.55C205.13,109.71,205.06,111.48,206.51,112Z" style="fill:#050505"/><path d="M165.2,210c-.31,3.87.65,7.78-.37,11.67a8.94,8.94,0,0,1-3.63,5.14c-6.9,5-13.82,9.94-20.7,14.95-1.87,1.36-3.5,1.41-5.3-.2a66.47,66.47,0,0,0-21.64-12.64c-1.33-.5-2.75-.13-4.13-.74-2.64-1.16-3.07-2.48-1-4.54a26,26,0,0,1,4.1-3.21c3.1-2,4.89-4.68,4.9-8.39,0-4.08-.16-8.15-.14-12.23,0-1.26-1-1.62-1.59-2.33s-2.41-.86-1.84-2.11a3.48,3.48,0,0,1,3.48-2.31,28.65,28.65,0,0,0,7.43-.66,28.35,28.35,0,0,0,5.39-1.77c.77-.33,2-.64,1.76-1.78a3.13,3.13,0,0,0-1.84-2.2c-4.52-2.12-9.17-3.35-14.21-2.32a5.86,5.86,0,0,1-3.42,0c-1.82-.71-2.35-2.22-.86-3.49,3.08-2.64,6.29-5.13,9.48-7.63,1.19-.93,2.64-.74,4.06-.69,10.9.4,21,4.13,31.26,7.31,5.7,1.77,6.68,6.06,7.36,10.81C164.71,197,165.89,203.43,165.2,210Zm-34.16.75a8.71,8.71,0,0,1-4.16,4c-1,.49-2.32,1.1-2.06,2.48.43,2.26,2.71,2.34,4.33,3.1a1.81,1.81,0,0,0,2.72-1.17c.37,0,.37-.27.37-.49q0-9.44,0-18.87c0-.61,0-1.3-.93-1.61C129.84,202.39,131.32,206.58,131,210.72Zm5-4h.38c0,4.73,0,9.46,0,14.19a4.09,4.09,0,0,0,1.72,3.66,35.21,35.21,0,0,0,8.41,4.58c1.83.61,3.47-.31,3.61-2.17.41-5,.3-10.07.41-15.09.11-4.69-.8-9.41-1.21-14.12a7.85,7.85,0,0,0-5.17-6.64c-1.33-.44-2.72-.72-4-1.14-3.09-1-4-.45-4.06,2.78C136,197.45,136,202.11,136,206.76Z" style="fill:#050505"/><path d="M202.48,292.64v21c0,.58.05,1.17,0,1.74a1.58,1.58,0,0,1-1.44,1.46c-.5,0-.87-.8-.88-1.58-.07-3.82-.28-7.65-.35-11.47q-.27-16.1-.48-32.2c-.06-4-.78-4.88-4.75-5.51-.66-.1-1.3-.29-2-.39-4.57-.67-5.48.53-4.2,5a49,49,0,0,1,2.13,9.14c.71,7.71-1.85,14.13-6.93,19.75-1.06,1.16-2.15,2.32-3.11,3.57-1.74,2.26-1.31,3.74,1.39,4.73a41.58,41.58,0,0,0,8,1.73c.57.08,1.17,0,1.73.16,2.19.5,2.61,1.65,1.09,3.24-2.81,2.94-5.74,5.77-8.58,8.7a3.16,3.16,0,0,1-4.07.67c-3.77-2.08-7.83-3.48-11.74-5.21-2.33-1-2-1.89-.6-3.33,2.75-2.86,5.67-5.56,7.61-9.13,4-7.45,3.8-15.08,1.1-22.8a87.47,87.47,0,0,0-5.88-12.79,7.16,7.16,0,0,1,.77-8.7c3.16-4,6.34-7.87,10.88-10.38.71-.39,1.46-1.22,2.21-.5s-.15,1.35-.47,2c-1.43,2.76-.46,8.06,1.92,10.06,1.1.92,2.17.41,3.15-.33,2.84-2.14,5.74-4.23,8.51-6.47a7.71,7.71,0,0,1,8.52-1.16c5.44,2.25,11,4,17,3.65,2.4-.16,3.25,1.34,2.16,3.53a23.68,23.68,0,0,1-1.81,3c-3.22,4.57-3.45,10-3.87,15.2a174.74,174.74,0,0,0-.16,22.19,9.81,9.81,0,0,0,4.89,8.39c3.23,2,3.29,3.07.57,5.59-2,1.87-4.08,3.66-6.09,5.54a3.63,3.63,0,0,1-5.09.35c-3.42-2.4-5.47-5.95-7.79-9.27a2.19,2.19,0,0,1-.09-2.17c2.12-4,1.29-8.29,1-12.47-.22-3.57-.35-7.14-.48-10.72a24.56,24.56,0,0,1,3.59-14.19c2.1-3.41,1.49-4.36-2.45-4.36-5.31,0-5.31,0-5.31,5.39v19.47Z" style="fill:#050505"/><path d="M52.13,261.74a22.55,22.55,0,0,1,9,7.64,48,48,0,0,0,17.93,16.34c10.89,5.77,19.45,14.47,28.63,22.42C120,318.77,131.35,330.36,144,340.56c9.22,7.43,17.76,15.72,26.6,23.62a7.82,7.82,0,0,1,.69.72c1.85,2.07,1.78,2.22-.77,3.25a10.1,10.1,0,0,1-9.73-.74c-15.75-10-31.58-19.87-46.7-30.81C107.66,331.93,102,326.24,96,321.1c-11.7-9.89-23.58-19.58-35.72-28.94-2-1.56-4.2-3-4.82-5.76-.28-1.22-1.5-1.22-2.42-1.34a38.08,38.08,0,0,1-5.51-1.31c1.48-.57.51-2.34,1.54-3.13,7.29,3.39,7.26,3.33,14.32-.35,1.71-.89,1.77-1.64.9-3.2A31.45,31.45,0,0,0,52,264.75Zm20.68,23.92a1.7,1.7,0,0,0-.85-1.29c-2-1.6-4.15-1.34-6.32-.51-4.16,1.59-4.38,2.83-1,5.87.47.43.81,1.45,1.79.76,1.95-1.39,3.9-2.77,5.84-4.17A3.35,3.35,0,0,0,72.81,285.66Z" style="fill:#050505"/><path d="M241.49,212.67c-.16,2.72.5,7.9,1.43,13.06.22,1.19,1.24,1.93,1.92,2.85,1.35,1.81,1.6,3.25-.23,5.17-5.87,6.19-5.74,6.22-12,.64-2-1.74-2.87-3.29-1.89-6.07,2.31-6.57,1.63-13.47,1.35-20.26-.13-3.41-2.23-4.94-5.8-5.16-5-.31-5-.31-5,4.67,0,5.63.87,11.22.63,16.87a6.2,6.2,0,0,0,2.14,4.61c1.54,1.51,1.37,2.87-.36,4.11s-3.53,2.46-5.19,3.82a3,3,0,0,1-4,.08c-1.2-.87-2.3-1.88-3.46-2.82a4.11,4.11,0,0,1-1.15-5.18c2.63-5.94,2.22-12.1,1.67-18.3,0-.5-.24-1-.24-1.48,0-2.92-.88-5.36-3.47-7-1.8-1.14-1.64-2.47-.32-3.89a36.91,36.91,0,0,1,7.54-6.4,2.63,2.63,0,0,1,3-.06,8.59,8.59,0,0,1,3.83,3.78c1.15,2.4,2.43,2.12,4.1.7,1.33-1.13,2.69-2.2,4.05-3.28,3-2.45,5-2.53,8.22-.12a41.62,41.62,0,0,1,4.44,3.95c1.52,1.56,2.83,1.41,4.21-.08,1.13-1.22,2.27-2.42,3.4-3.63,2.05-2.2,4-2.59,6.64-1.28,2.52,1.23,5,2.54,7.5,3.8,1.71.86,2.05,2.13,1,3.66a18,18,0,0,0-2.93,11.08c.07,3.41.13,6.83,0,10.24a7.7,7.7,0,0,0,3.23,7.1c1.48,1.06,1.62,2.11.59,3.5-1.38,1.86-2.64,3.82-4.13,5.58-2,2.39-4,2.5-6.47.51-1-.79-1.8-1.72-2.77-2.5-2.7-2.19-3.79-4.65-1.63-7.86a3.51,3.51,0,0,0,.47-1.9c0-5.75.59-11.46.9-17.19.16-3-1-4.18-4.07-4.37C242.22,203.25,242.22,203.25,241.49,212.67Z" style="fill:#050505"/><path d="M282.89,213.6c0,2.75-.07,5.49,0,8.23a9.73,9.73,0,0,0,2,6.28,3.08,3.08,0,0,1-.09,4.29c-1.56,1.93-3.25,3.76-4.92,5.61a2.2,2.2,0,0,1-3.47.19c-.62-.54-1.35-1-2-1.45-4.7-3.49-4.52-3.45-3.31-9a87.22,87.22,0,0,0,1.43-20.79,6.59,6.59,0,0,0-2.64-5.15c-1.92-1.44-1.89-2.84-.24-4.45.7-.69,1.21-1.57,1.87-2.31,1.29-1.47,2.4-3.82,4.53-3.43,2.76.51,5.63,1.64,7,4.53,1,2.13,2.12,2.17,3.82.93,2-1.45,4.07-2.82,6.11-4.22,1.64-1.14,3.18-1.93,5.09-.24,1.44,1.27,3.47,1.43,5.29,1.94,2.64.75,3.2,1.9,2.2,4.5-2.18,5.66-1.64,11.61-1.85,17.48,0,1.24.21,2.5.13,3.73-.21,3.11.22,5.87,2.9,8,1.54,1.21,1.41,2.86.19,4.41a40.82,40.82,0,0,1-4.85,5,3.34,3.34,0,0,1-4.14.14,14.76,14.76,0,0,1-5.05-4.67,5.38,5.38,0,0,1-.6-5.41,14.06,14.06,0,0,0,1-6.1c-.11-3.9-.05-7.81-.17-11.72-.16-5.35-2.91-7.68-8.34-7.23-1.58.13-1.79,1.23-1.78,2.49v8.46Z" style="fill:#050505"/><path d="M343.56,82.51c1.05,2.36,3.36,3.38,5.24,4.81a50.38,50.38,0,0,1,8.22,7.9c2.08,2.51,5.14,3.7,8.23,6.06C363,90.81,360.82,81,367.58,71.94c.63.9,0,2,.48,2.92-2.15,2.57-2.89,5.67-3.29,8.89-.74,6,1.22,11.48,3.28,16.88s2.87,11.16,3.69,16.87a28.45,28.45,0,0,0,3.72,10.41,12.34,12.34,0,0,1,1.82,6.6c-.07,6.33,1.17,12.53,2.24,18.74a61.82,61.82,0,0,1,.2,21.45c-.07.37.06.9-.57.85s-.64-.46-.7-.88a20.3,20.3,0,0,1-.31-5.45,53.31,53.31,0,0,0-.61-16.86c0-.2-.25-.36-.56-.8a84.64,84.64,0,0,1-4.22,10.89c-1.26,2.94-.47,5.9,0,8.82.65,3.75,1.49,7.45,2.25,11.17.08.39,0,.92.59,1s1-.45,1.36-.94c1.5-2.28,3-4.55,4.48-6.85a6.12,6.12,0,0,1,2.6-2.61c.57,1.58-.22,2.77-.88,4a52.42,52.42,0,0,1-5.69,7.8c-1,1.17-1.65,2.14.73,2.23a4.55,4.55,0,0,1-2.55,2.47c-3.95,1.64-7.91,3.23-11.86,4.84-.54.22-1.34.34-1.55.74-1.37,2.67-3,1.2-4.68.45a27.17,27.17,0,0,1-9.09-6.35c-6.26-6.92-14.22-10.55-23.1-12.54a25.38,25.38,0,0,1-2.54-.9l-2.24-2.87c5.46.69,10.36,3.06,15.42,5a23.69,23.69,0,0,1,10.5,7.07c2.2,2.68,5.19,4.58,8.06,6.56a6.35,6.35,0,0,0,6.48.94,82.42,82.42,0,0,1,9.88-3.06c1.82-.46,2.12-1.42,2.05-3A60.28,60.28,0,0,0,370.13,171a109,109,0,0,0-12.79-27.32c-2.53-3.88-4.68-7.74-8.32-11a26.17,26.17,0,0,1-8.17-15.39,24,24,0,0,1,0-4c1.38-2,1.28-3.74-.65-5.35a4.28,4.28,0,0,1-1.73-2.27,45.78,45.78,0,0,1-3.73-11.06A20.27,20.27,0,0,0,333,90.06a8.7,8.7,0,0,0-.45-3.81c-.58-1.93-1.94-3.59-1.9-5.71a1.31,1.31,0,0,0,1-1c1,0,1.35,1,2,1.41-.4,1.15.4,2.08.58,3.12a32.29,32.29,0,0,0,13.62,21.81,3.59,3.59,0,0,1,1.53,1.87c1.37,4.48,4.42,7.64,8.09,10.36,2.67,2,5.2,4.2,6.45,7.37,2.38,6,6.62,10.81,10.41,15.89a.93.93,0,0,0,1.21.22c-.39-4.78-.16-9.66-2.57-14.17s-3.46-9.76-4-15c-.42-3.64-1.66-6.61-5-8.87a57.06,57.06,0,0,1-10.12-8.34A51.12,51.12,0,0,0,339,83.62C340.55,83.51,342.36,84.29,343.56,82.51Zm-3.88,19.93,0,.14.11-.1c0,1.63,1.16,2.69,2.09,3.83,2.72,3.33,5.47,6.66,7.22,10.62A28.13,28.13,0,0,0,359,128.78a13.92,13.92,0,0,1,5,6.29c1.67,4,3.18,8.11,4.78,12.16a41.72,41.72,0,0,0,3,5.67c.33.57.72,1.75.17,2.12-.88.59-1.44-.41-1.91-1.08s-.82-1.24-1.2-1.89c-2.34-4-3.49-8.51-5.35-12.72-1.39-3.15-2.44-6.6-5.53-8.61a31.11,31.11,0,0,1-10-10.22c-1.32-2.22-2.44-4.57-3.82-7.17a6.12,6.12,0,0,0-1,5.48A30.43,30.43,0,0,0,355.64,135c.66.43,1.29.62,1.11,1.63-.4,2.25.71,4,2.13,5.57a32.55,32.55,0,0,1,6.19,9.51c1.19,2.89,2.47,5.74,3.64,8.64.27.66.6,1.35,1.23,1.44s.63-.84.87-1.31c1.64-3.13,2.9-6.52,4.94-9.34a4.18,4.18,0,0,0,.84-4.14c-.45-1.41-.54-3.25-2.87-2.87-.27,0-.71-.43-.92-.75-3.09-4.58-7.05-8.56-9.3-13.7-1.6-3.67-3.46-7.06-7-9.37-3.13-2.06-6.21-4.48-7.73-8C346.83,107.88,343,105.48,339.68,102.44Z" style="fill:#050505"/><path d="M244.87,272.82c.91-.2,1.57.35,2.3.73,3.66,1.92,7.29,3.8,11.57,4.06,3.06.19,3.93,1.87,2.59,4.53a14.33,14.33,0,0,0-1.48,7.18c.21,5,.21,10,.35,15,.06,2.39.61,4.55,2.7,6.12,1.48,1.12,1.37,2.54.14,3.86-1.58,1.69-3.14,3.41-4.8,5a2.55,2.55,0,0,1-4.11-.16l-1-1.1c-2.64-2.93-3.94-3.1-7.24-.89-1.1.74-2.19,1.49-3.26,2.26a4.89,4.89,0,0,1-4.73.69,49.94,49.94,0,0,1-7.92-3.42c-1.69-1-2.28-2.27-1.28-4.12a12.19,12.19,0,0,0,1.22-6c0-5.66,0-11.32,0-17a4.29,4.29,0,0,0-.1-1.73c-1.87-3.83.35-5.69,3.27-7.51,3.29-2.05,6.39-4.41,9.58-6.64C243.31,273.21,243.93,272.6,244.87,272.82ZM245,289.6a1.07,1.07,0,0,1,.05-1.39c2.41-3.36,2.37-3.43-1.9-4.07a6,6,0,0,1-.74-.12c-1.94-.48-2.69.54-2.6,2.26.36,6.39.52,12.78.59,19.17,0,3.37,2.36,5.4,5.75,5.67,2.7.22,3.88-.76,4-3.49.13-3.74.16-7.49.21-11.23,0-2.74.09-5.49,0-8.23,0-1.15-.39-2-1.78-.87A38.11,38.11,0,0,1,245,289.6Z" style="fill:#050505"/><path d="M168.71,230.79c2.49-6.41,1.52-13.11,1.72-19.73a27,27,0,0,0-1.12-8.1,2.76,2.76,0,0,1,1.23-3.39c4.43-3,8.89-6.06,13.3-9.13a2,2,0,0,1,2.47-.11c4.46,2.57,9.09,4.64,14.34,5.11,1.82.16,2,1.93,1.32,3-3.14,4.74-1.91,9.93-1.84,15,0,3,.41,6,.42,9a6,6,0,0,0,2.25,5c1.73,1.36,1.86,2.73.29,4.32-1.39,1.42-2.65,3-4.06,4.35-1.95,1.92-3.42,1.83-5.22-.19-.22-.25-.42-.51-.64-.76-2.11-2.35-4.37-2.84-6.72-.8-4,3.51-8.11,4.31-12.73,1.33a17.7,17.7,0,0,0-2.9-1.33A3.2,3.2,0,0,1,168.71,230.79ZM180.33,213h0c0,1.41,0,2.83,0,4.24s0,3,0,4.48c.09,4.43,2.41,6.59,6.83,6.63,2,0,2.76-.85,3-2.74a150,150,0,0,0,.62-19.88A2.75,2.75,0,0,0,189,203a28.62,28.62,0,0,0-5.16-1.63c-2.73-.54-3.51.17-3.54,2.91C180.3,207.16,180.33,210.07,180.33,213Z" style="fill:#050505"/><path d="M331.34,266.65c3.71,0,7,4.5,6.46,8.62a15.21,15.21,0,0,1-5.32,9.78c-2,1.81-2,3.44-.56,5.61,3.09,4.74,5.35,9.83,5.53,15.63a4.82,4.82,0,0,1-1.31,3.62q-5.42,5.83-10.9,11.59c-1.14,1.2-2.83,1.8-3.88.38-2.9-3.9-7.25-4.94-11.42-6.45-1.39-.5-2.78-1-4.13-1.62-2.27-1-2.63-2.57-1-4.47,1.24-1.44,2.61-2.77,3.82-4.24a5.19,5.19,0,0,0,.44-6.23c-1-1.73-2.13-3.36-3-5.15a5.33,5.33,0,0,1,.86-6.38,124.8,124.8,0,0,1,14.38-12.91,2.66,2.66,0,0,1,3.59-.16,23.81,23.81,0,0,0,5.46,2.78c2.37.89,4.13.38,4.78-1.54.78-2.3-1.16-3-2.61-3.81-.7-.4-1.63-.45-2.28-.9-.83-.58-2-1.25-1.59-2.49A2.46,2.46,0,0,1,331.34,266.65Zm-2.8,41.4c0-2.61-4.55-8.76-6.94-9.48a1.81,1.81,0,0,0-1.65.23,18.69,18.69,0,0,0-3.93,3.38c-1.14,1.41-.91,2.72.72,3.44,3.23,1.41,6.51,2.71,9.81,4C327.86,310.09,328.65,309.56,328.54,308.05Zm-10.81-23c-.94-.29-1.49.36-2,1.05s-.09,1.25.38,1.77c.66.73,1.28,1.51,2,2.19,2.43,2.29,4.06,1.88,5.64-1.16.8-1.55.17-2.49-1.12-2.91A38.06,38.06,0,0,0,317.73,285Z" style="fill:#050505"/><path d="M249.87,111.78c1.53.5,3.11,1,4.66,1.51,3.63,1.32,7.25,2.68,10.87,4a2.24,2.24,0,0,1,1.48,3.32c-2.75,6.85-1.26,13.9-1,20.89a32.64,32.64,0,0,0,1.05,5.09,2.84,2.84,0,0,1-1.07,3.1q-6.53,4.71-13.1,9.37a2.93,2.93,0,0,1-3.23.08q-6.44-3.1-13-6c-1.75-.79-2.34-1.74-1.53-3.69a17.7,17.7,0,0,0,1.14-7.07c-.11-6.4,0-12.81-.05-19.22a5.8,5.8,0,0,1,3-5.55c2.79-1.59,5.53-3.29,8.32-4.88A17.1,17.1,0,0,1,249.87,111.78ZM246,134.15h.11a31.23,31.23,0,0,1,0,4c-.75,5.43,1.56,8.67,6.7,10.41,2.85,1,3,1.13,3.41-1.83.92-6.08-.27-12.1-.81-18.11-.36-4-1.37-4.46-5.6-4.72a6.51,6.51,0,0,1-1-.1c-2-.42-2.8.49-2.8,2.39Z" style="fill:#050505"/><path d="M273.07,135.31c0-3,0-6,0-9,0-1.79-.42-3-2.53-3.25s-2.52-1.41-1.07-3.06a14.26,14.26,0,0,0,3.64-10.25,3.52,3.52,0,0,1,1.52-3.2c2.42-1.73,4.86-3.42,7.26-5.19a2.25,2.25,0,0,1,2.74-.35c.74.51.67,1.38.55,2.39-.31,2.62-.2,5.3-.25,8,0,1.86.81,2.64,2.73,2.66,3,0,3.28.44,3.1,3.61-.06.91,0,1.83,0,2.74a2.73,2.73,0,0,1-2.84,3c-3.27.32-3.54.77-3.6,4.09-.09,4.65-.16,9.31-.41,14a25.56,25.56,0,0,0,.57,5.42c.18,1.2,1.84,1.62,2.84,2.36,2.57,1.89,2.79,2.75.74,5.13-1.3,1.51-2.75,2.89-4.14,4.32a3.62,3.62,0,0,1-4.52.77c-3.06-1.43-6.11-2.87-9.19-4.24-1.4-.62-1.87-1.45-.71-2.62,2.81-2.81,3.32-6.35,3.37-10.06,0-2.41,0-4.82,0-7.23Z" style="fill:#050505"/><path d="M299.9,255.33c1.16,0,1.09,1.11.62,1.77-4.17,5.85-3.4,12.69-3.62,19.21-.33,10,0,19.94-.13,29.92a4.13,4.13,0,0,0,2.66,4c3.78,1.95,3.89,3.09.67,5.89-.94.82-1.87,1.65-2.83,2.43-4.09,3.35-2.58,2.87-7.21.68a13.85,13.85,0,0,1-4.15-3.13c-1.64-1.76-2.53-3.52-1.06-5.93a10.75,10.75,0,0,0,1.28-5c.75-12.62,1.09-25.25.7-37.88-.1-3.25.77-5.59,3.7-7.21,1.86-1,3.51-2.44,5.3-3.63A5.47,5.47,0,0,1,299.9,255.33Z" style="fill:#050505"/><path d="M52.13,261.74l-.12,3c-1.08,1.61-.78,3.52-1,5.28-.46,3.58-2,6.94-2,10.59-1,.79-.06,2.56-1.54,3.13-2.56-.07-4.91-1.25-7.64-1.54.28,1.87.48,3.65.84,5.4a6.78,6.78,0,0,1-.86,4.78,3.64,3.64,0,0,1-4,2,3.76,3.76,0,0,1-3.11-2.82c-1.11-3.19-.27-6.42.42-9.33,1-4.07-.1-7.61-1.61-10.94-2.48-5.44-3.2-11.2-4.21-16.95-.59-3.32-1.47-6.6-1.57-10,0-.46-.39-1.05.24-1.31a1.24,1.24,0,0,1,1.56.43c5,9.33,14.75,12.27,23.1,17.08C51.2,260.84,52.06,260.85,52.13,261.74Z" style="fill:#b5170d"/><path d="M376.2,87.39c1.55,2.79,3,5.62,4.66,8.36A136.6,136.6,0,0,1,392,120.47c2.86,8.14,6.24,16.19,8.05,24.57,2.18,10.05,7.58,18.59,11.06,28,1.57,4.24,2.55,8.7,4.07,13,2.71,7.57,7.18,14.27,11,21.3,5.35,9.94,11.33,19.58,15.4,30.14a110.11,110.11,0,0,1,6.19,26.48c.55,4.54.82,9.06,1,13.61,0,.69.37,1.7-.61,1.92-1.23.27-1.15-1-1.41-1.66a6.79,6.79,0,0,1-.31-2.21c-.63-17.51-4.4-34.13-12.89-49.68-6.15-11.27-11.65-22.89-18.3-33.89-2.28-3.77-2.47-8.18-3.7-12.28a62.39,62.39,0,0,0-5.12-12.82c-5.12-9.2-7.53-19.26-10.07-29.37-1.71-6.79-4.69-13.25-7-19.9C386.06,107.9,381,99,376,90.15Z" style="fill:#050505"/><path d="M279.61,281c-1.68,7.23-.54,15.22-.81,23.15a6.51,6.51,0,0,0,2.41,5.68c1.7,1.38,1.75,2.78.24,4.38s-2.76,3.1-4,4.73c-1.05,1.34-2.13,1.31-3.36.34l-6-4.72c-1.34-1.06-1.86-2.14-.71-3.8a10.28,10.28,0,0,0,1.65-5.62c.21-5.81.08-11.62,0-17.44a5.49,5.49,0,0,0-1.62-4c-1.58-1.66-1.42-3.39,0-5.06a12.92,12.92,0,0,1,6.43-4C276.8,273.73,279.66,276.63,279.61,281Z" style="fill:#050505"/><path d="M315.82,186.19c1,2.95,3.67,4.41,5.91,6.18,2.46,1.95,5.17,3.6,7.6,5.59,2.25,1.83,5.08,1.83,7.59,2.8.79.31,1.9.19.62,1.46-1.12,1.11.23,1.51.89,2,5.06,3.57,10.11,7.14,15.22,10.65a15.84,15.84,0,0,1,4.31,4.73c6.64,10.45,14.73,19.77,22.84,29.07a31.14,31.14,0,0,0,10.63,7.62c6.56,3,11.75,7.9,17.23,12.4.65.53,2.82,1.67-.06,2.49-1.09.32-.79,1.51-.83,2.4q-.43,8.6-.88,17.19c0,.74-.14,1.49-.23,2.23s-.14,2-1.09,2-1.22-1.27-1.15-2.13c.57-6.87.05-13.8,1-20.65a4.27,4.27,0,0,0-1.66-3.91,58.21,58.21,0,0,0-13.79-10c-8.81-4.45-15-11.82-20.93-19.4a143.49,143.49,0,0,1-9.36-13.13c-3.73-6-9-10.25-14.73-14.17q-12-8.24-23.77-16.65a43.15,43.15,0,0,1-8-8.18,1.59,1.59,0,0,1-.3-1.6C313.93,185.4,314.71,186.23,315.82,186.19Z" style="fill:#050505"/><path d="M150.92,31.37a2.71,2.71,0,0,1,2.58-1.9,49.83,49.83,0,0,1,6.11-.33c.35,0,.84.21,1-.22s-.34-.75-.62-1c-1.43-1.36-2.92-2.67-4.35-4-.31-.3-1.12-.55-.36-1.27s1-.09,1.38.26c1.64,1.38,3.27,2.77,4.92,4.14.28.23.49.68,1,.49s.34-.66.34-1a74.24,74.24,0,0,0-.43-10.75c-.14-.86-.4-1.74.51-2.4a3.38,3.38,0,0,1,.77,2c.42,3.83.89,7.66,1.36,11.49.05.4-.13,1,.48,1.1s.73-.39,1-.73q1.62-2.09,3.28-4.14c.21-.27.37-.85.84-.53s.11.65-.12,1c-.9,1.38-1.7,2.82-2.67,4.14-.84,1.15-.45,1.39.75,1.52s2.62.41,3.95.42a3.79,3.79,0,0,1,1.28.26c.39.14,1.05.23,1,.71s-.7.82-1.26.84c-1.55,0-3.09,0-4.64,0-.46,0-1.08-.26-1.34.31s.37.84.65,1.2c.85,1.09,1.74,2.14,2.6,3.21.18.23.59.5.22.82s-.58-.07-.83-.27c-1.06-.87-2.12-1.76-3.21-2.6-.32-.25-.6-.75-1.12-.55s-.34.75-.38,1.16a57.72,57.72,0,0,0-.44,6.44c0,.41.34,1.1-.49,1.15s-.79-.55-.77-1c.1-2-.67-3.8-.66-5.75,0-.52.09-1.2-.48-1.49s-1,.43-1.5.73c-.14.08-.24.23-.38.32-.33.23-.61.8-1.1.34s.09-.66.25-1c1.31-2.47,1.31-2.52-1.53-2.51C156,31.93,153.58,31.52,150.92,31.37Z" style="fill:#050505"/><path d="M315.82,186.19c-1.11,0-1.89-.79-2.88-1.07-2.26-2.79-5.66-4.21-8.1-6.79-1.83-1.94-3.68-3.8-4.79-6.28-1.42-3.17-.23-5.05,3.24-4.81,4.51.3,8.61,2.27,12.9,3.45a13.8,13.8,0,0,1,4.43,2.15l2.23,2.87c.77,1.69,2,3.14,2.29,5.09a5,5,0,0,1-4.65,5.73A13.87,13.87,0,0,1,315.82,186.19Z" style="fill:#b5170d"/><path d="M249.35,365.28c2.08.57,3.28,2.42,5,3.48.61.36,1.06,1.28,1.92.87s.84-1.38.86-2.2a27.69,27.69,0,0,1,.6-5.95c.13-.56.09-1.27.91-1.21s.61.81.66,1.35c.23,2.23.51,4.45.66,6.69.09,1.41.45,1.95,1.75.91.25-.21.57-.35.81-.56.49-.44,1.06-1.14,1.66-.65.8.66-.24,1.19-.54,1.6-1.2,1.65-1.09,2.6,1.16,2.47,2.94-.16,5.77.73,8.68.77.49,0,1.26-.45,1.37.53a1.27,1.27,0,0,1-1.12,1.43,31.7,31.7,0,0,1-4.45.48c-1.49,0-3-.18-4.48-.22-.61,0-1.46-.47-1.75.36s.58,1.08,1.05,1.51c1.53,1.4,3.08,2.77,4.59,4.2.43.4,1.31.8.61,1.58s-1.17.2-1.72-.25c-2-1.64-4-3.2-6-4.88-1.27-1.1-1.63-.68-1.76.75a71.74,71.74,0,0,0,.06,11c0,.5.05,1,0,1.5,0,.72.2,1.8-.71,1.88s-1.13-1.06-1.11-1.82c.12-4.26-.92-8.43-1-12.68,0-.61.29-1.4-.57-1.72s-1.17.36-1.62.83c-1.37,1.44-2.75,2.87-4.12,4.3-.41.43-.84.39-1.48.11,1.42-1.85,2.73-3.65,4.14-5.35.84-1,.59-1.39-.6-1.55-1.89-.25-3.78-.51-5.66-.81a3.73,3.73,0,0,1-2.66-1.39c1.65-1.06,3.32-.43,4.9-.53s3.7.73,4.2-.36c.59-1.3-1.54-2.37-2.36-3.63-.62-1-1.73-1.58-1.95-2.81Z" style="fill:#050505"/><path d="M323.92,40.08c0,.4-.37.45-.66.59a7.09,7.09,0,0,1-3,.36c-3.41.09-5,1.62-5.09,5-.06,2.06,0,4.13,0,6.19,0,.43.22,1.1-.43,1.18s-.69-.6-.75-1c-.39-2.61-.82-5.22-1.05-7.84-.25-2.81-.47-3.1-3.33-3.06-1.17,0-2.33,0-3.49,0A1,1,0,0,1,305,40.7c-.06-.68.59-.39,1-.44a35.27,35.27,0,0,1,4.24-.49c1.68-.05,2.56-1.29,2.72-3.46.17-2.32.36-4.63.55-6.94,0-.51,0-1.26.66-1.22.46,0,.46.74.47,1.21q.11,3.64.55,7.26c.23,1.8,1,2.66,2.82,2.72,1.58.06,3.17,0,4.75,0C323.36,39.32,323.74,39.49,323.92,40.08Z" style="fill:#050505"/><path d="M140.07,255.26c.9.25,1.15.66,1.11,1.21-.21,2.94.57,5.78.79,8.67.25,3.06,1.21,4.14,4.28,4.29,2.07.09,4.15,0,6.23,0,.5,0,1.08-.1,1.2.54s-.35,1-1,1.08l-4.7.44c-4,.38-5.79,2.28-5.92,6.26-.09,2.49,0,5,0,7.48,0,.46.2,1.12-.42,1.28-.79.2-1-.54-1.09-1.07-.45-2.44-.85-4.88-1.24-7.33-.08-.49,0-1-.08-1.49-.53-4.51-.91-4.83-5.41-4.76-1.5,0-3,0-4.49,0-.61,0-1-.18-1-.78s.48-.7,1-.75c2-.18,3.95-.5,5.93-.61a3.25,3.25,0,0,0,3.37-2.64c1-3.39.45-6.95,1.28-10.35C140,256.29,140,255.8,140.07,255.26Z" style="fill:#050505"/><path d="M196.19,66a15,15,0,0,1,4.39-1,2.37,2.37,0,0,0,2.23-2.35c.29-2,0-4.07.94-6a3,3,0,0,1,1.12,2.64c-.11,1.16.18,2.27.17,3.41,0,1.34.78,2,2.06,2.3a22.29,22.29,0,0,1,4.18,1c.38.16.69.34.63.72s-.54.36-.87.36c-1.56,0-3.13.07-4.68,0-1.14-.06-1.46.41-1.44,1.47,0,3.24,0,6.49,0,9.73,0,.52.2,1.09-.69,1.11s-.83-.38-.92-1c-.49-3.21-.27-6.47-.7-9.7-.21-1.52-.71-1.92-2.1-1.76-.89.1-1.81,0-2.7,0A1.61,1.61,0,0,1,196.19,66Z" style="fill:#050505"/><path d="M41,320.48a8.33,8.33,0,0,1-2.88,5.84c-1.75,1.46-3.88,1.9-5.75.6A5.52,5.52,0,0,1,30,321.34c.77-3.86,2.29-7.55,3-11.45.32-1.65,1.46-1.77,2.78-.76C38.65,311.34,41.07,316.26,41,320.48Z" style="fill:#b5170d"/><path d="M47.11,143.83c-1.08-1.75-.74-3.7-1-5.54-.17-1.25.57-2.92-.81-3.62-1.23-.63-1.62,1.4-3,1.64.11-1.58,1.29-2.44,2-3.55s.5-1.79-1-1.87c-1.86-.1-3.77.22-6.11-.5,2.06-1.25,4-1.26,5.68-1.8,1.21-.38,2-.91.69-2.12a4.19,4.19,0,0,1-1.19-3l2.7,2.58c.81-.75.29-2,.33-3,.09-2.07,0-4.15,0-6.23,0-.44-.24-1.12.46-1.2s.79.49.75,1c-.21,2.76.88,5.4.8,8.16,0,.63-.21,1.52.57,1.74s1.08-.6,1.53-1.08c.92-1,1.58-2.26,3.13-3-.36,1.69-1.55,2.57-2.09,3.79-.25.56-1.15.93-.68,1.71s1.29.6,2,.57c1.08-.06,2.15-.22,3.23-.2.85,0,1.75.51,1.75,1.3s-1,.53-1.64.62c-1.64.22-3.28.47-4.92.69-1.34.19-1.19.78-.48,1.61,1,1.19,2,2.41,3.32,4.07-2-.36-2.45-1.73-3.4-2.46-.5-.38-.8-1.26-1.6-.87s-.38,1.16-.38,1.79c0,2.16,0,4.32,0,6.48C47.81,142.28,48,143.14,47.11,143.83Z" style="fill:#050505"/><path d="M286.11,89.83c-1.08-1.75-.74-3.7-1-5.54-.17-1.25.57-2.92-.81-3.62s-1.62,1.4-3,1.64c.11-1.58,1.29-2.44,1.95-3.55s.5-1.79-1-1.87c-1.86-.1-3.77.22-6.11-.5,2.06-1.25,4-1.26,5.68-1.8,1.21-.38,2-.91.69-2.12a4.19,4.19,0,0,1-1.19-3l2.7,2.58c.81-.75.29-2,.33-3,.09-2.07,0-4.15,0-6.23,0-.44-.24-1.12.46-1.2s.79.49.75,1c-.21,2.76.88,5.4.8,8.16,0,.63-.21,1.52.57,1.74s1.08-.6,1.53-1.08c.92-1,1.58-2.26,3.13-3-.36,1.69-1.55,2.57-2.09,3.79-.25.56-1.15.93-.68,1.71s1.29.6,2,.57c1.08-.06,2.15-.22,3.23-.2.85,0,1.75.51,1.75,1.3s-1,.53-1.64.62c-1.64.22-3.28.47-4.92.69-1.34.19-1.19.78-.48,1.61,1,1.19,2,2.41,3.32,4.07-2-.36-2.45-1.73-3.4-2.46-.5-.38-.8-1.26-1.6-.87s-.38,1.16-.38,1.79c0,2.16,0,4.32,0,6.48C286.81,88.28,287,89.14,286.11,89.83Z" style="fill:#050505"/><path d="M98.11,278.83c-1.08-1.75-.74-3.7-1-5.54-.17-1.25.57-2.92-.81-3.62-1.23-.63-1.62,1.4-3,1.64.11-1.58,1.29-2.44,1.95-3.55s.5-1.79-1-1.87c-1.86-.1-3.77.22-6.11-.5,2.06-1.25,4-1.26,5.68-1.8,1.21-.38,2-.91.69-2.12a4.19,4.19,0,0,1-1.19-3l2.7,2.58c.81-.75.29-2,.33-3,.09-2.07,0-4.15,0-6.23,0-.44-.24-1.12.46-1.2s.79.49.75,1c-.21,2.76.88,5.4.8,8.16,0,.63-.21,1.52.57,1.74s1.08-.6,1.53-1.08c.92-1,1.58-2.26,3.13-3-.36,1.69-1.55,2.57-2.09,3.79-.25.56-1.15.93-.68,1.71s1.29.6,2,.57c1.08-.06,2.15-.22,3.23-.2.85,0,1.75.51,1.75,1.3s-1,.53-1.64.62c-1.64.22-3.28.47-4.92.69-1.34.19-1.19.78-.48,1.61,1,1.19,2,2.41,3.32,4.07-2-.36-2.45-1.73-3.4-2.46-.5-.38-.8-1.26-1.6-.87s-.38,1.16-.38,1.79c0,2.16,0,4.32,0,6.48C98.81,277.28,99,278.14,98.11,278.83Z" style="fill:#050505"/><path d="M360.44,270.35a4,4,0,0,1,1,3.22c0,4.36.09,4.4,4.35,5.47.92.24,2.76,0,2.61,1.21s-1.83.55-2.81.57c-4.16.09-4.16,0-4.16,4.24,0,2.28,0,4.55,0,6.83,0,.43.19,1-.61,1s-.82-.43-.86-1c-.2-3-.55-6-.6-9,0-2.46-.2-2.52-2.58-2.52h-2.87c-.44,0-1,0-1.05-.48-.12-.63.52-.49.88-.58,1.33-.32,2.64-.7,4-.91s1.77-1.08,1.71-2.28A13.5,13.5,0,0,1,360.44,270.35Z" style="fill:#050505"/><path d="M427.43,140.13c-1.09-1.1-2.17-3.19-3.48-2.76-1.16.39-.36,2.69-.44,4.14s.05,3.17-.05,4.74c0,.61.64,1.79-.55,1.78-1,0-.56-1.21-.63-1.87-.2-1.73-.15-3.49-.39-5.21-.36-2.63-.59-2.67-2.69-1a7.39,7.39,0,0,1-1.14.54c.17-1.41,1.11-2.13,1.67-3,1.16-1.85.94-2.34-1.28-2.58-1.71-.19-3.46.24-5.46-.35,1.65-1.22,3.44-1.16,5-1.59,2.41-.65,2.46-.69,1-2.8-.54-.76-1.57-1.28-1.45-2.44.18-.06.38-.2.46-.15.91.57,1.18,2.42,2.55,1.86s.56-2.08.66-3.17c.22-2.22-.35-4.52.68-6.7,1.07,3.73.8,7.65,1.89,11.35,1.4-.06,1.37-2.26,3.09-1.78.12,0,.06.08-.05.3-1.72,3.52-1.69,3.54,2.56,3.28,1.2-.07,3-.47,3.23.83s-1.7.72-2.63,1c-1.49.41-3.67-.09-4.47.79-1,1.12,1.64,2.16,1.43,3.77a.93.93,0,0,0,.46,1.06Z" style="fill:#050505"/><path d="M327.5,242.29c1.06-3.41,1.06-3.38-3-3.45-1.08,0-2.32.43-3.45-.88,1.83-.42,3.46-.81,5.11-1.15,1.82-.37,2.32-1.1.91-2.62-.65-.7-1.71-1.27-1.21-2.52a.45.45,0,0,0,.15.11c1,.55,1.61,2.39,2.57,2,1.22-.51.4-2.2.47-3.37.12-1.9,0-3.82,0-5.73,0-.46-.16-1.09.55-1.17s.65.56.7,1q.44,4.2.88,8.4c.06.54-.15,1.23.6,1.46s1-.35,1.39-.78c.7-.76,1.16-1.78,2.36-2.37.24,1.64-.91,2.46-1.53,3.4-1,1.55-.27,2,1.07,2s2.81-.29,4.22-.24c.52,0,1.46.24,1.39,1.11s-.9.48-1.41.57c-2.1.35-4.21.67-6.5,1,.76,1.86,2.65,2.8,3,4.71-1.07-.1-1.55-1.19-2.38-1.8-.42-.32-.62-1.13-1.36-.76s-.49,1-.49,1.55c0,2.66,0,5.32,0,8,0,.38,0,1.08-.73,1-.14,0-.21-.55-.31-.83.08-.54.3-1.11-.24-1.56-.48-1.93-.22-3.91-.34-5.86C329.8,241.85,329.8,241.85,327.5,242.29Z" style="fill:#050505"/><path d="M376.2,87.39,376,90.15c-2.82-4.37-5.78-8.66-7-13.82a6.13,6.13,0,0,0-.86-1.47c-.44-.93.15-2-.48-2.92-.19-2.48-.36-5-.58-7.43-.11-1.23-.08-2.49,1.33-2.81s1.86.87,2.2,1.88C373.16,71.34,376.74,78.88,376.2,87.39Z" style="fill:#b5170d"/><path d="M411.33,319.75c1.39,1.27,1.32,2.73,1.3,4.25-.06,4.89,1.07,6.11,5.89,6.69,1.35.16,2.79.23,4.09,2-2.83,0-5.25.09-7.66,0-1.72-.07-2.35.48-2.29,2.26.12,3.74,0,7.48,0,11.22,0,.66.18,1.43-.82,1.47s-1.32-.41-1.31-1.38c.05-4-.51-8-.83-11.92-.11-1.4-.52-1.91-1.92-1.8s-2.83,0-4.24,0c-.81,0-1.75.28-2.11-1,1.68-1.36,4-.76,6-1.43A3.16,3.16,0,0,0,410,327.2C410.33,324.76,410.26,322.24,411.33,319.75Z" style="fill:#050505"/><path d="M11.42,183v5.73c0,.76.11,1.52-1.09,1.49s-.89-.75-.91-1.39c-.17-4-1.08-7.91-.9-11.91.07-1.73-.67-2.38-2.38-2.27s-3.49,0-5.24,0c-.43,0-.85,0-.9-.58s.33-.64.78-.71c1.64-.24,3.27-.49,4.9-.78,1.81-.33,3.1-1.09,2.9-3.28-.19-2,.58-3.91.87-5.87.06-.45.23-.86.71-.88s.46.57.68.88c1,1.43.46,3.07.55,4.61.2,3.35.92,4.19,4.2,4.65,1.31.18,2.61.47,3.9.76.65.14,1.41.36,1.25,1.24s-.91.51-1.45.51a50.07,50.07,0,0,1-5.48,0c-2.11-.21-2.57.7-2.42,2.57S11.42,181.29,11.42,183Z" style="fill:#050505"/><path d="M248.43,0c.22,2.37.51,4.74.63,7.12.21,4.07.73,4.68,4.78,4.95,1.16.08,2.33,0,3.49,0,.57,0,1.33-.15,1.31.7,0,.66-.65.88-1.29.88s-1.34,0-2,0c-4.21.12-5.83,1.67-6,5.9-.09,1.91,0,3.82-.08,5.74,0,.53.24,1.35-.59,1.41s-.72-.76-.79-1.29c-.4-2.79-.81-5.59-1.12-8.39-.23-2.11-1.15-3.11-3.39-2.78a23.89,23.89,0,0,1-3.49,0c-.56,0-1.34.19-1.46-.56-.17-1,.87-.82,1.4-1a11,11,0,0,1,3-.36c2.42.07,3.73-1.1,4-3.42.29-2.56.45-5.13.69-7.7A11.51,11.51,0,0,1,247.78,0Z" style="fill:#050505"/><path d="M201.43,351.19a1.53,1.53,0,0,1-1.76,1c-7.22-.38-7.93,2.71-7.68,8.65a1,1,0,0,1,0,.25c-.33,1.42.89,3.34-.79,4.09-.39.18-.75-2.54-1-3.93a39.43,39.43,0,0,1-.87-6.39c-.08-1.75-1-2.1-2.38-2.06l-4.74.07a1.11,1.11,0,0,1-1.15-.77c-.08-.54.6-.74,1-.8a35.53,35.53,0,0,1,3.71-.35c2.11-.1,3.31-.89,3.59-3.23.32-2.72.62-5.44.74-8.18,0-.49,0-1.09.73-1,.54.06.42.59.45,1,.22,2.56.57,5.12.66,7.69.08,2.19,1.17,3.16,3.22,3.21,1.67.05,3.33,0,5,0C200.75,350.45,201.37,350.28,201.43,351.19Z" style="fill:#050505"/><path d="M333.71,80.92c-.7-.45-1.07-1.37-2-1.41-.05-1.28-.93-2.06-1.73-2.89-1.56-1.59-3.15-3.14-4.65-4.78-.72-.78-1.65-1.78-.95-2.83.83-1.25,2.13-.39,3.14-.05,2.24.74,3.88,2.46,5.64,3.92,3.65,3,8,5.31,10.45,9.63-1.2,1.78-3,1-4.61,1.11C336.92,83.27,335.43,81.87,333.71,80.92Z" style="fill:#b5170d"/><path d="M53.62,231.61c-1.54-1.71-1-3.18-1.22-4.48-.17-1,.52-2.39-.55-3s-1.42,1.08-2.34,1.32c-.1-.24-.24-.42-.2-.49,1.89-3.28,1.9-3.27-1.86-3.77-.65-.08-1.28-.25-2.27-.45,1.13-.36,1.94-.66,2.77-.88,3-.83,3-.82,1.2-3.53,1.06-.53,1.22.88,2.2,1,.6-1.82.15-3.72.3-5.56,0-.52-.38-1.34.51-1.41s.63.74.7,1.28c.19,1.48.38,3,.64,4.43.1.59-.21,1.53.68,1.64a1.93,1.93,0,0,0,1.62-.93c.33-.45.77-.83,1.65-1.78a13.55,13.55,0,0,0-1.78,2.3c-.48,1.25-.42,2.24,1.42,2.26,1.19,0,3.19-1,3.37.65.12,1.09-2,.59-3.19.72-2.48.27-2.55.43-.86,2.94-.17,0-.39.14-.48.08-2-1.41-2.51-.62-2.34,1.52C53.74,227.28,53.62,229.15,53.62,231.61Z" style="fill:#050505"/><path d="M366.9,344.33c.39,2.81.48,5.62.79,8.42.22,2.05,1.16,2.76,3.05,2.66a10.41,10.41,0,0,1,1.25,0c.61,0,1.55-.25,1.53.71s-.88.77-1.56.81c-3.15.23-4,1.13-4.13,4.32-.06,2.08,0,4.16,0,6.23,0,.45.21,1.15-.49,1.18s-.65-.56-.69-1.1c-.19-2.48-.62-5-.61-7.44,0-2.17-.87-2.84-2.85-2.61-.58.07-1.16,0-1.75,0s-.84,0-.89-.59.26-.73.72-.83c.25-.05.48-.16.72-.23,3.92-1.05,3.92-1.05,4-5.18A22.31,22.31,0,0,1,366.9,344.33Z" style="fill:#050505"/><path d="M322.29,124.8c1,2.28.94,4.76,1,7.21.12,3.23.49,3.64,3.81,3.69.82,0,1.67-.13,2.33.56-.29.93-1,.88-1.78.93-3,.21-4.23,1.5-4.32,4.57-.08,2.45,0,4.9,0,7.64-1.4-1-1.13-2.19-1.23-3.22-.13-1.48-.29-3-.32-4.45-.05-2.76-.75-4.71-4.14-3.89a1,1,0,0,1-1.28-.84c-.05-.59.69-.57,1.11-.72a3.55,3.55,0,0,1,1.46-.28c1.89.15,2.45-.94,2.58-2.56C321.76,130.56,322,127.68,322.29,124.8Z" style="fill:#050505"/><path d="M69.7,172.81c.69.79.29,1.82.35,2.72.11,1.33,0,2.67.11,4,.27,3.47.79,3.89,4.29,4,.61,0,1.71-.63,1.76.63,0,.9-.91.8-1.55.79-2.67,0-3.91,1.47-4.13,3.93-.16,1.9-.09,3.82-.17,5.73,0,.79.38,1.69-.62,2.41a29.57,29.57,0,0,1-.93-7.73c0-3.4-.37-3.63-3.67-3.71-.62,0-1.74.57-1.76-.65,0-.93,1.08-.89,1.76-1,3.17-.72,3.64-1.26,3.69-4.61,0-2.15,0-4.3,0-6.45Z" style="fill:#050505"/><path d="M421.05,216.19a45.52,45.52,0,0,1,8.6,17.4c.51,1.83.88,3.7,1.24,5.56.12.66.84,1.68-.17,1.93s-1.15-1-1.38-1.7c-1-3.23-1.79-6.52-2.94-9.68C424.75,225.15,422.85,220.69,421.05,216.19Z" style="fill:#050505"/><path d="M442.72,189.78c.15-1.33.29-2.66.43-4,.79.82.05,2.08.84,2.89.1.4.23.8.3,1.21.65,4.17.64,4.17,4.75,4.55.47,0,1.14-.12,1.22.52s-.54.81-1.17.9c-4.16.6-4.46.95-4.55,5.18,0,1.82,0,3.64,0,5.47,0,.41.3,1.12-.51,1.09-.64,0-.6-.62-.66-1.13-.26-2.63-.73-5.26-.78-7.9,0-1.72-.65-2.16-2.2-2.05-1.08.08-2.32.41-3.19-1.05,2.56-.83,6.17-.6,5.51-4.89C443,190.34,443,190.07,442.72,189.78Z" style="fill:#050505"/><path d="M330.69,80.54c0,2.12,1.32,3.78,1.9,5.71a8.7,8.7,0,0,1,.45,3.81q-2.67-2.73-5.33-5.47a3.94,3.94,0,0,1-.66-.75c-.71-1.21-1.79-2.65-.53-3.82S329.43,79.26,330.69,80.54Z" style="fill:#b5170d"/><path d="M370.09,224.82a11.34,11.34,0,0,1-7.23-2.74c-.38-.29-1.1-.67-.75-1.39.28-.56,1-.46,1.34-.33,3,1.09,6,2.22,8.9,3.45.55.23.43.89-.27,1A14.67,14.67,0,0,1,370.09,224.82Z" style="fill:#050505"/><path d="M323.33,361.89c.08,2.49-.75,3.53-2.45,3.52a2.41,2.41,0,0,1-2.47-2.56c0-1.25.67-2.57,2.21-2.5C322,360.42,323.23,361,323.33,361.89Z" style="fill:#050505"/><path d="M338.46,105.66a4.28,4.28,0,0,0,1.73,2.27c1.93,1.61,2,3.38.65,5.35-1-.39-1.59-1.35-2.32-2.08C336.06,108.7,336.08,108.31,338.46,105.66Z" style="fill:#b5170d"/><path d="M455.29,157.6c-1.79.37-2.44-.78-2.49-2.2-.05-1.63.81-2.43,2.64-2.38s2.4.92,2.34,2.4S457.09,158,455.29,157.6Z" style="fill:#050505"/><path d="M404.21,221.78c0-.83-.06-1.66,0-2.48,0-.49-.36-1.32.52-1.39.72,0,.78.72,1,1.25.7,1.76.37,3.59.43,5.4,0,.8-.41,1-1.07,1-.85.08-.93-.39-.91-1.06,0-.91,0-1.83,0-2.74Z" style="fill:#050505"/><path d="M401.08,84.39c2-.08,2.36,1.07,2.35,2.11,0,1.2-.72,2.3-2.14,2.13a2,2,0,0,1-1.82-2.19A1.84,1.84,0,0,1,401.08,84.39Z" style="fill:#050505"/><path d="M243.59,74.12c-.27,1.22-.85,2.19-2.29,2.07a2.16,2.16,0,0,1,.36-4.31C243,72,243.45,72.9,243.59,74.12Z" style="fill:#050505"/><path d="M342.26,323.65c.22,1.44-1.38,1.6-2.27,1.73s-1.74-.91-1.66-2,.66-2.1,2-2.08S342.23,322.08,342.26,323.65Z" style="fill:#050505"/><path d="M284.27,336.34a2,2,0,0,1,1.76,2,1.9,1.9,0,0,1-1.92,2.09c-1.36.1-1.89-.58-2-1.91C282,336.9,283.37,336.9,284.27,336.34Z" style="fill:#050505"/><path d="M336.16,195.5c.46-2.72,1.63-5.09,1.58-7.77C339.83,189.91,339.19,193.21,336.16,195.5Z" style="fill:#050505"/><path d="M361.53,207.88a4.74,4.74,0,0,1-.73,4.49,1.4,1.4,0,0,1-1.9.6c-1-.52-.41-1.3,0-1.86C359.66,210.06,360.53,209.09,361.53,207.88Z" style="fill:#050505"/><path d="M399,165.52c.2-.69.1-1.88.94-2,1.24-.21.49,1.07.78,1.63.12.21.08.49.18.71.52,1.08,1.45,2.8.2,3.13-1.45.39-1.43-1.78-2-2.89A3.36,3.36,0,0,1,399,165.52Z" style="fill:#050505"/><path d="M371.62,203.7l4.85-.35c.37,0,.73.07.72.44s-.29.74-.47.75C375.06,204.62,373.18,206.08,371.62,203.7Z" style="fill:#050505"/><path d="M395.89,182.05c-1.09-1.76-.9-3.63-1.7-5.41C396.5,177.58,397.16,179.84,395.89,182.05Z" style="fill:#050505"/><path d="M267.07,56.68a1.41,1.41,0,0,1-1.51,1.56c-1.15,0-1.36-.69-1.44-1.6s.54-1.37,1.35-1.4S267.11,55.55,267.07,56.68Z" style="fill:#050505"/><path d="M84.17,228c.77.16,1.37.62,1.29,1.46a1.46,1.46,0,0,1-1.42,1.4c-.86,0-1.2-.66-1.24-1.5S83.29,228.05,84.17,228Z" style="fill:#050505"/><path d="M437.38,103.69c-1,.25-1.73.08-1.7-1,0-.94.76-1.13,1.58-1.13s1.72.24,1.62,1.31C438.8,103.59,438.36,104.27,437.38,103.69Z" style="fill:#050505"/><path d="M121.51,305.34c-1.09.17-1.37-.63-1.42-1.33a1.27,1.27,0,0,1,1.26-1.51,1.25,1.25,0,0,1,1.37,1.4C122.71,304.58,122.56,305.46,121.51,305.34Z" style="fill:#050505"/><path d="M110.15,62.87c-.92,0-1.42-.46-1.44-1.35,0-.69.12-1.34,1-1.43a1.61,1.61,0,0,1,1.76,1.36C111.64,62.3,110.86,62.68,110.15,62.87Z" style="fill:#050505"/><path d="M204.92,19c-.07.54-.18,1.49-.93,1.27S202.2,20,202.2,19a1.44,1.44,0,0,1,1.37-1.41C204.53,17.55,204.9,18,204.92,19Z" style="fill:#050505"/><path d="M392.75,289.66c-.72.06-1.23-.12-1.23-1a1.25,1.25,0,0,1,1.36-1.35c.37,0,1.39.33,1.34,1.17S393.74,289.83,392.75,289.66Z" style="fill:#050505"/><path d="M229.81,363.23c-1.05,0-1.58-.25-1.59-1.14s.34-1.65,1.35-1.7.86,1.08,1.11,1.63S230.33,363.24,229.81,363.23Z" style="fill:#050505"/><path d="M444,188.69c-.79-.81-.05-2.07-.84-2.89-.27-.81-.13-1.57.47-3C444,185.18,444.33,186.9,444,188.69Z" style="fill:#b5170d"/><path d="M327.5,242.29c2.3-.44,2.3-.44,2.44,1.21-.54-.61-1-1.33-2-.65l-.36-.5Z" style="fill:#b5170d"/><path d="M327.24,243.58c-.15.69-.66,1-1.17.6s-.06-.83.45-1Z" style="fill:#b5170d"/><path d="M330.28,249.36c.54.45.32,1,.24,1.56A1.15,1.15,0,0,1,330.28,249.36Z" style="fill:#b5170d"/><path d="M249.4,365.28l-1-.91c.7.12.16,1.12,1,.92Z" style="fill:#050505"/><path d="M427.38,140.1c.18.47.62.4,1,.46-.4,0-.42-.7-.93-.44C427.43,140.13,427.38,140.1,427.38,140.1Z" style="fill:#050505"/><path d="M442.72,189.78c.27.29.3.56-.05.81C442.38,190.3,442.38,190,442.72,189.78Z" style="fill:#b5170d"/><path d="M94.24,249.11l-.14.08-.21-.23c.06,0,.15-.09.18-.07A1.84,1.84,0,0,1,94.24,249.11Z" style="fill:#b5170d"/><path d="M327.24,243.58l-.72-.43c.31-.32.15-1.28,1.06-.8l.36.5Z" style="fill:#050505"/><path d="M87.65,263c0,.28-.16.35-.39.18C87.25,262.78,87.38,262.71,87.65,263Z" style="fill:#b5170d"/><polygon points="57.29 225.31 57.19 225.51 57.31 225.53 57.29 225.31" style="fill:#050505"/><path d="M150.23,121.33a33.91,33.91,0,0,1-.57,12.77,56.37,56.37,0,0,0-1.11,9.05,56.4,56.4,0,0,1-.91,6.12c-.19,1.33-.91,2.52-2.68,2.3a5.8,5.8,0,0,0-3.3,1,7.62,7.62,0,0,1-3.83.82c-1.93-.08-3-.52-3-3,0-3.49-1.77-6.68-3-9.92-2.37-6.41-5.06-12.7-7.54-19.07a7.61,7.61,0,0,0-3.43-4.36c-1.35-.72-1.59-1.65,0-2.47,4.38-.42,8.36.41,11.75,3.45a35.61,35.61,0,0,0,4.22,3.08c3.66,2.41,6,2.28,9.44-.44C148.33,119,148.59,119.07,150.23,121.33Z" style="fill:#b5170d"/><path d="M339.77,102.48l-.11.1,0-.14Z" style="fill:#fdfdfd"/><path d="M312.33,101.85c0,.64-.18,1.33-1.21,1.36s-1.33-.73-1.33-1.45a1.23,1.23,0,0,1,1.42-1.33C312.14,100.46,312.34,100.94,312.33,101.85Z" style="fill:#050505"/></svg>