<svg xmlns="http://www.w3.org/2000/svg" viewBox="0 0 798.35 232.64">
  <g id="Layer_2" data-name="Layer 2">
    <g id="Layer_1-2" data-name="Layer 1">
      <path style="fill:#3c94d1;" class="cls-1" d="M768.27.24c6.39.69 13 .49 18.73 4 6 4.19 9.4 10 11.16 17q.09 8.88.19 17.75v159.7c-.37 6.68.34 13.48-2.15 19.93a47.57 47.57 0 0 1-8 9.75c-6.11 3.79-12.91 4.34-19.86 4.24H28.84c-7.13.21-13.92-.9-19.85-5.25l-6.17-7.71C-.33 213 .36 205.78 0 198.72V59l.06-19.8c1.06-3.55.65-7.21.42-10.77C-.14 19 2.78 11.27 10 5.19 11.81 1 15.73.56 19.47.19a53.78 53.78 0 0 1 9.41 0C42.69.27 56.49.8 70.31.57c20-.34 39.94.14 59.91.14s39.94-.23 59.91-.23S230.07.7 250 .7s40-.21 60-.21 39.89.21 59.86.21S409.8.49 429.77.49s39.94.2 59.91.21S529.63.5 549.6.49s39.94.2 59.91.2S649.45.5 669.42.5s39.94.2 59.91.18C742.31.66 755.29.4 768.27.24Z"/>
      <path style="fill:#fefefe;" class="cls-2" d="M504.38 90c-.71-3.16-3.08-4-5.89-4.2-5.12-.39-9.74 1.29-14.27 3.35-3.1 1.41-2.6 4.22-2.65 6.81.48.63.6 1.22-.2 1.7-2.29 14.07-4.62 28.14-6.87 42.22-1.94 12.13-4 24.25-5.57 36.43-.49 3.75-2 4.61-5.44 4.4-4-.25-8 .05-12 .11-9 .61-18 1-26.93-.21.77-11.79 3.25-23.34 5-35 4.43-29.07 9.13-58.1 13.46-87.19.59-4 2.15-4.74 5.75-4.65q14.22.36 28.47.06c3.37-.07 5 1 5.07 4.36.05 4.17 1.65 3.67 4.4 1.79 11.39-7.78 24-11.39 37.8-10 8.14.81 15.18 4 20.06 10.71 2 2.79 3.36 2.44 5.81.74 14-9.73 29.58-13.63 46.44-10.68C610.09 53 616.75 61 617.65 74.36c.79 11.57-1.53 22.85-3.29 34.17-3.57 22.82-7.26 45.61-10.68 68.45-.49 3.31-1.81 4-4.8 3.94-11.82-.15-23.65-.21-35.47 0-3.49.05-4.17-1.09-3.65-4.33q6.19-38.88 12.17-77.81a31.28 31.28 0 0 0 .46-5.95c-.17-4.32-2.49-6.7-6.9-6.92-5-.24-9.48 1.42-13.89 3.5a3.6 3.6 0 0 0-2.23 3Q544 128.1 538.59 163.8c.41.94.77 1.87-.28 2.65-.62 3.24-1.56 6.46-1.78 9.72-.24 3.57-1.53 4.77-5.21 4.69-11.47-.27-23-.35-34.42-.07-4.38.11-4.89-1.54-4.3-5.21q4.84-30 9.44-60c.91-5.89 1.6-11.82 2.38-17.73-.56-2.61-.02-5.25-.04-7.85ZM358.85 180.57c-1.09-4.86.65-9.48 1.34-14.16 3.52-23.83 7.26-47.63 10.86-71.44.54-3.55.61-7.07-3.51-8.84-3-.22-5.94 0-8.9-.11-10.09 1.81-11.47 3.63-12 15.89.49.63.6 1.21-.19 1.7l-6.88 42.23c-1.64 10.17-3.34 20.33-4.71 30.53-.41 3.06-1.66 3.76-4.48 3.72-12-.17-24-.27-36-.11-3.65.05-4.1-1.39-3.62-4.43 5.82-36.92 11.53-73.85 17.39-110.76 1.84-11.6 2-11.58 13.56-11.57h18.48c7.64 0 7.64 0 8.82 7.29 2.07.32 3.32-1.28 4.83-2.15 12.79-7.38 26.34-10.93 41.16-8.5 13.1 2.15 20.51 10.32 21.46 23.64.82 11.4-1.51 22.52-3.2 33.67-3.52 23.32-7.29 46.6-11 69.9-.18 1.14-.55 2.25-.82 3.38-.38.29-.64.71-1.23.71q-20.08.09-40.16 0c-.48.03-.8-.34-1.2-.59ZM629.32 130.43c.14-15.27 2.17-27.66 7.1-39.48 13.16-31.63 40.82-43 70.72-40.5a55.29 55.29 0 0 1 6.91 1c19.72 4.12 31.71 16.31 34.95 36.75 3.43 22 .21 43.08-10.61 62.73-17.58 31.93-53.25 38.58-79.14 30.33-17.92-5.71-25.75-19.91-28.7-37.45a76.72 76.72 0 0 1-1.23-13.38ZM68.89 179.33l-20-119.88c-.51-3.07-.38-4.86 3.47-5.15q18.42-1.39 36.78-3.3c3.66-.39 4.34 1.1 4.73 4.34 3.25 27.51 6.69 55 10.08 82.53 2-.08 2.06-1.75 2.64-2.77 8.68-15.57 16.63-31.44 19.57-49.28a50.9 50.9 0 0 0-2.19-26c-.92-2.54-.85-3.69 2.21-4.26 11.59-2.19 23.17-4.51 34.69-7 3.14-.69 3.76 1.25 4.68 3.15 5.53 11.39 6 23.36 3.63 35.53-4.56 23.09-15.84 43.23-28.3 62.76-5.54 8.68-11.79 16.9-17.46 25.49-2.19 3.32-4.77 4.6-8.68 4.26a92 92 0 0 0-10 .13c-11.76 1-23.54.29-35.31.33-.16-.11-.35-.61-.54-.88ZM276.87 137.12c-1.81 12.21-3.53 23.67-5.18 35.14a3.71 3.71 0 0 1-2.81 3.12c-20.18 7.29-40.72 10.28-61.57 3.46-17-5.58-26.23-18.45-29-35.57-4.21-26 .87-50 17.3-71C211.05 52.59 238.55 44 262.07 50.9c12.86 3.8 21.43 12 24 25.38 2.54 13-1 24.47-11.19 33.28-11.8 10.15-26.17 14.07-41.19 16.2a35.48 35.48 0 0 1-7.44.69c-5-.37-5.82 1.58-4.81 6.11 2 8.89 7.45 13.94 16.55 14.4 11.06.56 21.43-2.19 31.47-6.54 2.26-.97 4.48-1.98 7.41-3.3Z"/>
      <path style="fill:#3c94d1;" class="cls-1" d="M698.33 85c4.11 1.3 5.52 4.78 6 8.41a87.16 87.16 0 0 1-6.31 46.7 24 24 0 0 1-3.91 5.71 11.08 11.08 0 0 1-11.64 3.91c-4.38-1.06-6.6-4.47-7.27-8.63-2.71-16.77-1-33 6.45-48.44a16.58 16.58 0 0 1 3-4c1.59-1.68 3.32-3.27 5.77-3.65 2.63-.1 5.27-.01 7.91-.01Z"/>
      <path d="M249.59 91.88c-2 4.3-5.93 6.11-9.92 7.72a37.58 37.58 0 0 1-8.13 2.25c-3 .5-7.31 2.69-8.89.29-1.73-2.63.64-6.62 2.16-9.74 2.84-5.85 6.89-10.59 13.14-12.94s10.5-.29 12.63 5.5a43.7 43.7 0 0 0-.99 6.92Z" style="fill:#3c95d1"/>
    </g>
  </g>
</svg>